<?xml version="1.0" encoding="utf-8"?>
<!-- Generator: Adobe Illustrator 21.1.0, SVG Export Plug-In . SVG Version: 6.00 Build 0)  -->
<svg version="1.1" id="Layer_1" xmlns="http://www.w3.org/2000/svg" xmlns:xlink="http://www.w3.org/1999/xlink" x="0px" y="0px"
	 viewBox="0 0 599.4 959.9" style="enable-background:new 0 0 599.4 959.9;" xml:space="preserve">
<style type="text/css">
	.st0{fill:#FFFFFF;stroke:#000000;stroke-width:1.22;stroke-miterlimit:10;}
	.st1{fill:none;stroke:#000000;stroke-width:1.62;stroke-miterlimit:10;}
	.st2{fill:none;stroke:#000000;stroke-width:1.22;stroke-miterlimit:10;}
	.st3{fill:none;stroke:#000000;stroke-miterlimit:10;}
	.st4{fill:#FFFFFF;stroke:#000000;stroke-width:1.05;stroke-miterlimit:10;}
	.st5{fill:#FFFFFF;stroke:#000000;stroke-width:1.02;stroke-miterlimit:10;}
	.st6{fill:none;stroke:#000000;stroke-width:0.78;stroke-miterlimit:10;}
	.st7{fill:#FFFFFF;}
	.st8{fill:#FFFFFF;stroke:#000000;stroke-miterlimit:10;}
</style>
<g id="Layer_1_1_">
	<title>conversation14</title>
	<polygon class="st0" points="80.9,13.8 83.4,11.4 85.8,9 90.8,6.6 97,4.2 105.6,1.8 115.5,0.6 131.6,0.6 156.3,0.6 237.8,0.6
		367.5,0.6 403.3,0.6 410.7,0.6 416.9,1.8 423.1,4.2 428,6.6 434.2,10.2 437.9,12.6 441.6,17.5 444.1,23.5 446.5,29.5 449,37.9
		450.3,46.3 450.3,92 450.3,148.6 450.3,221.9 450.3,239.5 450.3,618.9 450.3,668.2 449,674.2 447.8,677.8 445.3,682.7 441.6,688.7
		437.9,693.5 434.2,697.1 429.3,700.7 421.9,705.5 410.7,706.7 358.9,706.7 257.5,706.7 108.1,706.7 100.7,705.5 92,701.9
		85.8,698.3 80.9,694.7 77.2,689.9 74.7,683.9 72.3,675.4 71,670.6 69.8,664.6 69.8,659.8 69.8,55.9 69.8,45.1 69.8,40.3 71,34.3
		72.3,29.5 73.5,25.9 74.7,22.3 77.2,17.5 	"/>
	<path class="st0" d="M416.9,1.8"/>
	<polygon class="st0" points="426.8,605.7 426.8,618.9 426.8,633.3 428,645.4 429.3,657.4 431.7,667 434.2,675.4 436.7,683.9
		439.1,688.7 440.4,692.3 437.9,694.7 434.2,698.3 429.3,701.9 423.1,704.3 414.4,706.7 397.1,707.9 358.9,707.9 209.4,709.1
		213.1,715.1 220.5,723.5 230.4,734.4 244,745.2 260,757.2 272.4,766.9 288.4,777.7 304.5,786.1 309.4,790.9 321.8,806.5 336.6,833
		351.4,860.7 367.5,895.6 376.1,918.4 382.3,936.5 392.2,959.3 598.8,959.3 598.5,734.7 580,699.5 578.7,693.5 577.5,686.3
		571.3,640.5 566.4,597.2 562.7,560 560.2,483 559,454.1 556.5,437.3 552.8,420.4 546.6,404.8 540.4,392.8 534.3,381.9 524.4,366.3
		514.5,353.1 507.1,343.4 499.7,335 489.8,323 481.1,311 472.5,295.3 467.5,284.5 465.1,276.1 460.1,264 456.4,253.2 451.5,241.2
		445.3,232.8 440.4,231.6 436.7,231.6 433,232.8 428,236.4 423.1,242.4 419.4,247.2 415.7,254.4 412,265.2 410.7,272.5 408.3,284.5
		407,297.7 405.8,313.4 405.8,329 408.3,338.6 412,347 415.7,353.1 419.4,360.3 420.6,366.3 424.3,375.9 429.3,386.7 433,396.4
		435.4,404.8 439.1,414.4 441.6,424 444.1,434.9 445.3,444.5 446.5,454.1 446.5,464.9 446.5,475.8 446.5,493.8 442.9,514.2
		440.4,523.9 437.9,534.7 435.4,549.1 433,558.8 431.7,570.8 429.3,585.2 428,600.9 	"/>
	<polygon class="st0" points="67.3,223.1 59.9,223.1 53.7,223.1 46.3,224.4 37.7,226.8 31.5,230.4 26.5,235.2 22.8,241.2
		21.6,250.8 21.6,259.2 24.1,265.2 26.5,270.1 31.5,274.9 36.4,278.5 42.6,280.9 48.8,283.3 57.4,285.7 66.1,288.1 68.6,288.1
		68.6,223.1 	"/>
	<polygon class="st0" points="68.6,353.1 61.1,357.9 55,361.5 47.5,366.3 36.4,372.3 25.3,379.5 15.4,385.5 8,391.5 3.1,396.4
		0.6,401.2 0.6,406 3.1,412 8,416.8 15.4,420.4 20.4,422.8 26.5,425.2 35.2,427.6 41.4,427.6 48.8,427.6 53.7,427.6 57.4,427.6
		55,431.2 50,437.3 45.1,444.5 42.6,451.7 38.9,457.7 35.2,464.9 31.5,470.9 25.3,478.2 20.4,485.4 16.7,491.4 16.7,497.4
		19.1,502.2 24.1,504.6 30.3,508.2 36.4,511.8 42.6,515.5 40.1,521.5 32.7,532.3 26.5,546.7 22.8,555.2 22.8,561.2 25.3,567.2
		30.3,570.8 36.4,574.4 47.5,579.2 55,579.2 59.9,576.8 64.8,572 68.6,567.2 72.3,561.2 72.3,550.3 72.3,538.3 72.3,532.3
		72.3,522.7 69.8,511.8 68.6,503.4 72.3,492.6 72.3,484.2 72.3,475.8 72.3,462.5 72.3,450.5 69.8,439.7 68.6,427.6 68.6,418 	"/>
	<polygon class="st0" points="418.1,351.4 419.1,618.4 101.1,618.4 101.1,51.4 418.1,51.4 418.1,238.4 412.1,256.4 408.1,275.4
		407,288.7 406.1,320.4 412.1,338.4 	"/>
	<path class="st1" d="M101.1,126.4h317.5"/>
	<path d="M351.5,600.8c0.8,0,1.5-0.7,1.5-1.5s-0.7-1.5-1.5-1.5l0,0c-0.8,0-1.5,0.7-1.5,1.5S350.7,600.8,351.5,600.8z"/>
	<path d="M349.7,599.7l0.3,0.9c0.3,0.8,1.1,1.2,1.9,1s1.2-1.1,1-1.8l-0.2-0.9c-0.3-0.8-1.1-1.2-1.8-1
		C350,598.2,349.5,599,349.7,599.7L349.7,599.7z"/>
	<path class="st0" d="M244.1,36.4"/>
	<polygon class="st0" points="231.1,26.4 288.1,26.4 291.1,27.4 293.1,29.4 293.1,32.4 293.1,35.4 291.1,37.4 288.1,38.4
		277.1,38.4 257.1,38.4 231.1,38.4 229.1,37.4 227.1,35.4 226.1,32.4 226.1,30.4 227.1,28.4 228.1,27.4 229.1,26.4 	"/>
	<polygon class="st0" points="257.1,652.4 273.1,652.4 294.1,652.4 297.1,652.4 299.1,654.4 301.1,657.4 301.1,672.4 301.1,676.4
		300.1,677.4 298.1,679.4 293.1,680.4 276.1,680.4 226.1,680.4 222.1,679.4 219.1,677.4 218.1,674.4 218.1,669.4 218.1,658.4
		219.1,655.4 221.1,653.4 223.1,652.4 231.1,652.4 241.1,652.4 	"/>
	<line class="st2" x1="101.1" y1="127.4" x2="101.1" y2="127.4"/>
	<line class="st2" x1="419.1" y1="127.4" x2="420.1" y2="127.4"/>
	<path d="M232.8,88.1c-0.2-1.3-0.7-2.5-1.5-3.6c-0.9-1.2-2-1.6-5.8-1.6h-3.7c-1.6,0-1.8,0.1-1.8,1.5v10.3h5.1c4.7,0,5-0.4,5.6-3.3
		h1.5v8.7h-1.5c-0.6-3.1-0.9-3.6-5.6-3.6H220v7.7c0,3.9,0.5,4.2,5.1,4.5v1.3h-14.4v-1.3c4.1-0.3,4.5-0.6,4.5-4.5V87
		c0-3.9-0.5-4.1-4.4-4.4v-1.3h23c0.1,1.6,0.3,4.5,0.5,6.6L232.8,88.1z"/>
	<path d="M245.1,95c1.7-2.4,3.8-4.8,6.1-4.8c1.9,0,3.1,1.2,3.1,2.3c0,1.1-0.8,2-1.8,2.4c-0.4,0.2-1,0.2-1.4-0.1
		c-0.6-0.6-1.4-0.9-2.2-0.9c-1.3,0-2.9,1.3-3.9,3.6v7.9c0,2.9,0.2,3.2,4.2,3.5v1.2H237v-1.2c3.1-0.3,3.5-0.5,3.5-3.5v-9.1
		c0-2.8-0.3-3-3.1-3.4v-1c2.6-0.3,5.1-0.9,7.5-1.8V95H245.1z"/>
	<path d="M274.6,106.1c-3.3,3.7-7,4.4-8.6,4.4c-6.3,0-10-4.4-10-9.4c0-2.9,1.2-5.6,3.3-7.5c2-2.1,4.8-3.3,7.7-3.4l0,0
		c4.4,0,7.8,3.3,7.8,6.8c0,0.9-0.3,1.2-1.2,1.4c-0.9,0.2-7.3,0.6-13.2,0.8c0.1,5.7,3.9,8.1,7.4,8.1c2.2,0,4.3-0.8,5.9-2.2
		L274.6,106.1z M265.7,91.9c-2.2,0-4.4,1.7-5.1,5.4c2.7,0,5.4,0,8.3-0.1c0.9,0,1.2-0.3,1.2-0.8c0.1-2.4-1.7-4.4-4.1-4.5
		C265.9,91.9,265.8,91.9,265.7,91.9L265.7,91.9z"/>
	<path d="M303.1,108.8c-2.8,0.4-5.6,1-8.3,1.7v-2.8l-3,1.6c-1.2,0.7-2.5,1.1-3.9,1.3c-4.2,0-9.7-3.2-9.7-9.4s6.2-10.9,13.3-10.9
		c1.1,0,2.2,0.2,3.3,0.5v-6.2c0-2.9-0.3-3-3.9-3.2v-1.1c2.8-0.3,5.6-0.8,8.4-1.5V105c0,2.4,0.4,2.6,2.4,2.8l1.4,0.1L303.1,108.8z
		 M294.8,94.2c-1.3-1.5-3.2-2.3-5.2-2.3c-2.2,0-6.4,1.6-6.4,8c0,5.3,3.8,7.7,7,7.7c1.6-0.1,3.2-0.5,4.6-1.4V94.2z"/>
	<line class="st3" x1="101.6" y1="578.9" x2="418.6" y2="578.9"/>
	<path class="st4" d="M186.3,583.4h176.3c6.6,0,12,5.4,12,12v6.1c0,6.6-5.4,12-12,12H186.3c-6.6,0-12-5.4-12-12v-6.1
		C174.3,588.8,179.7,583.4,186.3,583.4z"/>
	<ellipse class="st5" cx="357.8" cy="598.7" rx="9.8" ry="11.2"/>
	<path class="st6" d="M352.9,603.6c2.6,2.8,6.9,2.9,9.7,0.3c0.4-0.3,0.7-0.7,0.9-1.1"/>
	<path d="M353.9,597.8c0.6-0.1,1.1-0.6,1.1-1.3c-0.1-0.6-0.5-1-1.1-1.1c-0.6,0.1-1.1,0.6-1.1,1.3
		C352.9,597.4,353.4,597.8,353.9,597.8z"/>
	<path d="M361.3,597.8c0.6-0.1,1.1-0.6,1.1-1.3c-0.1-0.6-0.5-1-1.1-1.1c-0.6,0.1-1.1,0.6-1.1,1.3
		C360.3,597.4,360.8,597.8,361.3,597.8z"/>
	<g id="xkgxMF.tif">
		<path d="M161.2,593.7v13.6c-0.3,0.7-0.6,1.4-1,2c-1.4,1.7-3.5,2.7-5.7,2.6c-9.4,0-18.7,0-28.1,0c-1,0-2-0.2-2.9-0.5
			c-2.3-0.8-3.8-2.9-3.8-5.2c0.1-3.9,0-7.7,0-11.6c0-0.6,0.1-1.1,0.3-1.7c0.7-1.8,2.4-3.2,4.3-3.5c1.3-0.2,2.6-0.3,3.8-0.3
			c1.1,0,2.2,0,3.2,0c0.1-0.3,0.1-0.6,0.2-0.9c0-0.7,0.2-1.3,0.4-1.9c0.7-1.3,2-2.1,3.5-2.1c3.3,0,6.6,0,9.9,0
			c1.9,0,3.6,1.4,3.9,3.3c0,0.5,0.2,1,0.3,1.6c1.8,0,3.6,0,5.3,0c1.5,0,2.9,0.5,4.1,1.3C160,591.3,160.8,592.4,161.2,593.7z
			 M140.5,609.2h5.7c2.9,0,5.8,0,8.6,0c1.6,0.1,3-1.1,3.1-2.7c0-4,0-8,0-12c0-0.5-0.2-0.9-0.4-1.3c-0.7-1-1.8-1.5-3-1.4h-5
			c-1.6,0-3-1.1-3.2-2.7c0-0.5-0.2-0.9-0.2-1.4c0-0.4-0.3-0.8-0.7-0.8h-0.1h-9.4c-0.4,0-0.7,0.2-0.7,0.6l0,0
			c-0.1,0.4-0.1,0.9-0.2,1.3c-0.2,1.8-1.7,3.1-3.5,2.9l0,0c-1.7,0-3.4,0-5.2,0c-1.6-0.1-2.9,1.1-3.1,2.6c0,4,0,8.1,0,12.2
			c0,0.5,0.3,1,0.6,1.4c0.7,0.9,1.8,1.3,2.9,1.2L140.5,609.2z"/>
		<path class="st7" d="M161.2,593.7c-0.4-1.3-1.2-2.4-2.2-3.2c-1.2-0.9-2.6-1.3-4.1-1.3c-1.8,0-3.5,0-5.3,0c-0.1-0.5-0.2-1-0.3-1.6
			c-0.3-1.9-1.9-3.4-3.9-3.3c-3.3,0-6.6,0-9.9,0c-1.5,0-2.8,0.8-3.5,2.1c-0.2,0.6-0.4,1.3-0.4,1.9c-0.1,0.3-0.1,0.5-0.2,0.9
			c-1.1,0-2.2,0-3.2,0c-1.3,0-2.6,0.1-3.8,0.3c-1.9,0.4-3.6,1.7-4.3,3.5c-0.2,0.5-0.3,1.1-0.3,1.7c0,3.9,0.1,7.7,0,11.6
			c0,2.4,1.6,4.5,3.8,5.2c0.9,0.3,1.9,0.5,2.9,0.5c9.4,0,18.7,0,28.1,0c2.2,0.1,4.3-0.9,5.7-2.6c0.4-0.6,0.7-1.3,1-2v4.9h-41.6V584
			h41.6L161.2,593.7z"/>
		<path class="st7" d="M140.5,609.2h-14c-1.1,0.1-2.2-0.3-2.9-1.2c-0.3-0.4-0.5-0.9-0.6-1.4c0-4,0-8.1,0-12.2
			c0.1-1.6,1.5-2.7,3.1-2.6c1.7,0,3.4,0,5.2,0c1.8,0.2,3.3-1.1,3.5-2.9l0,0c0.1-0.5,0.1-0.9,0.2-1.3c0-0.4,0.3-0.7,0.7-0.6l0,0h9.4
			c0.4,0,0.8,0.3,0.8,0.7v0.1c0,0.5,0.2,0.9,0.2,1.4c0.2,1.6,1.6,2.7,3.2,2.7h5c1.2-0.1,2.3,0.4,3,1.4c0.3,0.4,0.4,0.8,0.4,1.3
			c0,4,0,8,0,12c-0.1,1.6-1.5,2.8-3.1,2.7c-2.9,0-5.8,0-8.6,0L140.5,609.2z M140.5,592c-2.1,0-4.2,0.6-6,1.8s-3.1,3-3.4,5.2
			c-0.3,1.8,0.2,3.7,1.3,5.2c1,1.4,2.4,2.5,4.1,3.1c3,1.2,6.3,1.1,9.2-0.5c1.8-0.8,3.2-2.3,3.9-4.1c0.6-1.4,0.7-2.9,0.3-4.3
			c-0.4-1.5-1.2-2.8-2.3-3.8C145.5,592.9,143,592,140.5,592L140.5,592z M154.2,595.6c0.8,0,1.3-0.5,1.3-1.2s-0.6-1.2-1.2-1.1h-0.1
			c-0.7,0-1.3,0.5-1.3,1.2S153.5,595.7,154.2,595.6L154.2,595.6L154.2,595.6z"/>
		<path d="M140.4,592c2.6-0.1,5.1,0.8,7,2.5c1.1,1,1.9,2.3,2.3,3.8c0.4,1.4,0.3,3-0.3,4.3c-0.7,1.8-2.1,3.3-3.9,4.1
			c-2.8,1.5-6.2,1.7-9.2,0.5c-1.6-0.6-3-1.7-4.1-3.1c-1.1-1.5-1.6-3.4-1.3-5.2c0.4-2.1,1.6-4,3.4-5.2
			C136.2,592.6,138.3,592,140.4,592z M140.3,594.7c-1.1,0-2.2,0.3-3.2,0.8c-2.2,1-3.4,3.4-2.8,5.8c0.5,1.6,1.7,2.9,3.2,3.5
			c3,1.4,7.6,0.3,8.9-3c0.7-1.6,0.4-3.4-0.8-4.7C144.3,595.5,142.4,594.6,140.3,594.7z"/>
		<path d="M154.2,595.6c-0.7,0.1-1.3-0.4-1.4-1.1l0,0c0-0.7,0.6-1.2,1.3-1.2c0.7-0.1,1.3,0.4,1.3,1v0.1
			C155.5,595.1,155,595.6,154.2,595.6z"/>
		<path class="st7" d="M140.3,594.7c2-0.1,4,0.7,5.3,2.3c1.1,1.3,1.4,3.1,0.8,4.7c-1.3,3.3-5.9,4.4-8.9,3c-1.5-0.6-2.7-1.9-3.2-3.5
			c-0.6-2.3,0.6-4.8,2.8-5.8C138.1,595,139.2,594.7,140.3,594.7z"/>
	</g>
</g>
<g id="send_button">
	<polygon class="st8" points="379.7,585.3 410.7,598.8 379.7,612.3 390.7,598.8 	"/>
</g>
</svg>
