<?xml version="1.0" encoding="utf-8"?>
<!-- Generator: Adobe Illustrator 21.1.0, SVG Export Plug-In . SVG Version: 6.00 Build 0)  -->
<svg version="1.1" xmlns="http://www.w3.org/2000/svg" xmlns:xlink="http://www.w3.org/1999/xlink" x="0px" y="0px"
   viewBox="0 0 599.4 959.9" style="enable-background:new 0 0 599.4 959.9;" xml:space="preserve">
  <style type="text/css">
    .st0{fill:#FFFFFF;stroke:#000000;stroke-width:1.22;stroke-miterlimit:10;}
    .st1{fill:none;stroke:#000000;stroke-width:1.62;stroke-miterlimit:10;}
    .st2{fill:none;stroke:#000000;stroke-width:1.22;stroke-miterlimit:10;}
    .st3{fill:none;stroke:#000000;stroke-miterlimit:10;}
    .st4{fill:#FFFFFF;stroke:#000000;stroke-width:1.05;stroke-miterlimit:10;}
    .st5{fill:#FFFFFF;stroke:#000000;stroke-width:1.02;stroke-miterlimit:10;}
    .st6{fill:none;stroke:#000000;stroke-width:0.78;stroke-miterlimit:10;}
    .st7{fill:#FFFFFF;stroke:#000000;stroke-width:1.1;stroke-miterlimit:10;}
    .st8{fill:#FFFFFF;stroke:#000000;stroke-width:1.31;stroke-miterlimit:10;}
    .st9{fill:#FFFFFF;stroke:#000000;stroke-width:1.18;stroke-miterlimit:10;}
    .st10{fill:#FFFFFF;stroke:#000000;stroke-width:2;stroke-miterlimit:10;}
    .st11{fill:#FFFFFF;stroke:#000000;stroke-width:1.12;stroke-miterlimit:10;}
    .st12{fill:#FFFFFF;}
    .st13{fill:#FFFFFF;stroke:#000000;stroke-width:1.07;stroke-miterlimit:10;}
    .st14{fill:#FFFFFF;stroke:#000000;stroke-miterlimit:10;}
  </style>
  <g id="layer_1">
    <title>fullconversation</title>
    <g id="Phone">
      <polygon class="st0" points="80.9,13.8 83.4,11.4 85.8,9 90.8,6.6 97,4.2 105.6,1.8 115.5,0.6 131.6,0.6 156.3,0.6 237.8,0.6
        367.5,0.6 403.3,0.6 410.7,0.6 416.9,1.8 423.1,4.2 428,6.6 434.2,10.2 437.9,12.6 441.6,17.5 444.1,23.5 446.5,29.5 449,37.9
        450.3,46.3 450.3,92 450.3,148.6 450.3,221.9 450.3,239.5 450.3,618.9 450.3,668.2 449,674.2 447.8,677.8 445.3,682.7
        441.6,688.7 437.9,693.5 434.2,697.1 429.3,700.7 421.9,705.5 410.7,706.7 358.9,706.7 257.5,706.7 108.1,706.7 100.7,705.5
        92,701.9 85.8,698.3 80.9,694.7 77.2,689.9 74.7,683.9 72.3,675.4 71,670.6 69.8,664.6 69.8,659.8 69.8,55.9 69.8,45.1 69.8,40.3
        71,34.3 72.3,29.5 73.5,25.9 74.7,22.3 77.2,17.5 		"/>
      <path class="st0" d="M416.9,1.8"/>
    </g>
    <g id="hand">
      <polygon class="st0" points="426.8,605.7 426.8,618.9 426.8,633.3 428,645.4 429.3,657.4 431.7,667 434.2,675.4 436.7,683.9
        439.1,688.7 440.4,692.3 437.9,694.7 434.2,698.3 429.3,701.9 423.1,704.3 414.4,706.7 397.1,707.9 358.9,707.9 209.4,709.1
        213.1,715.1 220.5,723.5 230.4,734.4 244,745.2 260,757.2 272.4,766.9 288.4,777.7 304.5,786.1 309.4,790.9 321.8,806.5
        336.6,833 351.4,860.7 367.5,895.6 376.1,918.4 382.3,936.5 392.2,959.3 598.8,959.3 598.5,734.7 580,699.5 578.7,693.5
        577.5,686.3 571.3,640.5 566.4,597.2 562.7,560 560.2,483 559,454.1 556.5,437.3 552.8,420.4 546.6,404.8 540.4,392.8
        534.3,381.9 524.4,366.3 514.5,353.1 507.1,343.4 499.7,335 489.8,323 481.1,311 472.5,295.3 467.5,284.5 465.1,276.1 460.1,264
        456.4,253.2 451.5,241.2 445.3,232.8 440.4,231.6 436.7,231.6 433,232.8 428,236.4 423.1,242.4 419.4,247.2 415.7,254.4
        412,265.2 410.7,272.5 408.3,284.5 407,297.7 405.8,313.4 405.8,329 408.3,338.6 412,347 415.7,353.1 419.4,360.3 420.6,366.3
        424.3,375.9 429.3,386.7 433,396.4 435.4,404.8 439.1,414.4 441.6,424 444.1,434.9 445.3,444.5 446.5,454.1 446.5,464.9
        446.5,475.8 446.5,493.8 442.9,514.2 440.4,523.9 437.9,534.7 435.4,549.1 433,558.8 431.7,570.8 429.3,585.2 428,600.9 		"/>
    </g>
    <g id="fingers">
      <polygon class="st0" points="67.3,223.1 59.9,223.1 53.7,223.1 46.3,224.4 37.7,226.8 31.5,230.4 26.5,235.2 22.8,241.2
        21.6,250.8 21.6,259.2 24.1,265.2 26.5,270.1 31.5,274.9 36.4,278.5 42.6,280.9 48.8,283.3 57.4,285.7 66.1,288.1 68.6,288.1
        68.6,223.1 		"/>
      <polygon class="st0" points="68.6,353.1 61.1,357.9 55,361.5 47.5,366.3 36.4,372.3 25.3,379.5 15.4,385.5 8,391.5 3.1,396.4
        0.6,401.2 0.6,406 3.1,412 8,416.8 15.4,420.4 20.4,422.8 26.5,425.2 35.2,427.6 41.4,427.6 48.8,427.6 53.7,427.6 57.4,427.6
        55,431.2 50,437.3 45.1,444.5 42.6,451.7 38.9,457.7 35.2,464.9 31.5,470.9 25.3,478.2 20.4,485.4 16.7,491.4 16.7,497.4
        19.1,502.2 24.1,504.6 30.3,508.2 36.4,511.8 42.6,515.5 40.1,521.5 32.7,532.3 26.5,546.7 22.8,555.2 22.8,561.2 25.3,567.2
        30.3,570.8 36.4,574.4 47.5,579.2 55,579.2 59.9,576.8 64.8,572 68.6,567.2 72.3,561.2 72.3,550.3 72.3,538.3 72.3,532.3
        72.3,522.7 69.8,511.8 68.6,503.4 72.3,492.6 72.3,484.2 72.3,475.8 72.3,462.5 72.3,450.5 69.8,439.7 68.6,427.6 68.6,418 		"/>
    </g>
    <g id="phone_screen">
      <polygon class="st0" points="418.1,351.4 419.1,618.4 101.1,618.4 101.1,51.4 418.1,51.4 418.1,238.4 412.1,256.4 408.1,275.4
        407,288.7 406.1,320.4 412.1,338.4 		"/>
      <path class="st1" d="M101.1,126.4h317.5"/>
      <path d="M351.5,600.8c0.8,0,1.5-0.7,1.5-1.5s-0.7-1.5-1.5-1.5s-1.5,0.7-1.5,1.5S350.7,600.8,351.5,600.8z"/>
      <path d="M349.7,599.7l0.3,0.9c0.3,0.8,1.1,1.2,1.9,1c0.8-0.2,1.2-1.1,1-1.8l-0.2-0.9c-0.3-0.8-1.1-1.2-1.8-1
        C350,598.2,349.5,599,349.7,599.7L349.7,599.7z"/>
    </g>
    <g id="frame">
      <path class="st0" d="M244.1,36.4"/>
      <polygon class="st0" points="231.1,26.4 288.1,26.4 291.1,27.4 293.1,29.4 293.1,32.4 293.1,35.4 291.1,37.4 288.1,38.4
        277.1,38.4 257.1,38.4 231.1,38.4 229.1,37.4 227.1,35.4 226.1,32.4 226.1,30.4 227.1,28.4 228.1,27.4 229.1,26.4 		"/>
      <polygon class="st0" points="257.1,652.4 273.1,652.4 294.1,652.4 297.1,652.4 299.1,654.4 301.1,657.4 301.1,672.4 301.1,676.4
        300.1,677.4 298.1,679.4 293.1,680.4 276.1,680.4 226.1,680.4 222.1,679.4 219.1,677.4 218.1,674.4 218.1,669.4 218.1,658.4
        219.1,655.4 221.1,653.4 223.1,652.4 231.1,652.4 241.1,652.4 		"/>
    </g>
    <g id="chat_head_and_footering">
      <line class="st2" x1="101.1" y1="127.4" x2="101.1" y2="127.4"/>
      <line class="st2" x1="419.1" y1="127.4" x2="420.1" y2="127.4"/>
      <path d="M232.8,88.1c-0.2-1.3-0.7-2.5-1.5-3.6c-0.9-1.2-2-1.6-5.8-1.6h-3.7c-1.6,0-1.8,0.1-1.8,1.5v10.3h5.1c4.7,0,5-0.4,5.6-3.3
        h1.5v8.7h-1.5c-0.6-3.1-0.9-3.6-5.6-3.6H220v7.7c0,3.9,0.5,4.2,5.1,4.5v1.3h-14.4v-1.3c4.1-0.3,4.5-0.6,4.5-4.5V87
        c0-3.9-0.5-4.1-4.4-4.4v-1.3h23c0.1,1.6,0.3,4.5,0.5,6.6L232.8,88.1z"/>
      <path d="M245.1,95c1.7-2.4,3.8-4.8,6.1-4.8c1.9,0,3.1,1.2,3.1,2.3c0,1.1-0.8,2-1.8,2.4c-0.4,0.2-1,0.2-1.4-0.1
        c-0.6-0.6-1.4-0.9-2.2-0.9c-1.3,0-2.9,1.3-3.9,3.6v7.9c0,2.9,0.2,3.2,4.2,3.5v1.2H237v-1.2c3.1-0.3,3.5-0.5,3.5-3.5v-9.1
        c0-2.8-0.3-3-3.1-3.4v-1c2.6-0.3,5.1-0.9,7.5-1.8V95H245.1z"/>
      <path d="M274.6,106.1c-3.3,3.7-7,4.4-8.6,4.4c-6.3,0-10-4.4-10-9.4c0-2.9,1.2-5.6,3.3-7.5c2-2.1,4.8-3.3,7.7-3.4l0,0
        c4.4,0,7.8,3.3,7.8,6.8c0,0.9-0.3,1.2-1.2,1.4c-0.9,0.2-7.3,0.6-13.2,0.8c0.1,5.7,3.9,8.1,7.4,8.1c2.2,0,4.3-0.8,5.9-2.2
        L274.6,106.1z M265.7,91.9c-2.2,0-4.4,1.7-5.1,5.4c2.7,0,5.4,0,8.3-0.1c0.9,0,1.2-0.3,1.2-0.8c0.1-2.4-1.7-4.4-4.1-4.5
        C265.9,91.9,265.8,91.9,265.7,91.9L265.7,91.9z"/>
      <path d="M303.1,108.8c-2.8,0.4-5.6,1-8.3,1.7v-2.8l-3,1.6c-1.2,0.7-2.5,1.1-3.9,1.3c-4.2,0-9.7-3.2-9.7-9.4s6.2-10.9,13.3-10.9
        c1.1,0,2.2,0.2,3.3,0.5v-6.2c0-2.9-0.3-3-3.9-3.2v-1.1c2.8-0.3,5.6-0.8,8.4-1.5v26.2c0,2.4,0.4,2.6,2.4,2.8l1.4,0.1L303.1,108.8z
         M294.8,94.2c-1.3-1.5-3.2-2.3-5.2-2.3c-2.2,0-6.4,1.6-6.4,8c0,5.3,3.8,7.7,7,7.7c1.6-0.1,3.2-0.5,4.6-1.4L294.8,94.2z"/>
      <line class="st3" x1="101.6" y1="578.9" x2="418.6" y2="578.9"/>
      <path class="st4" d="M186.3,583.4h176.3c6.6,0,12,5.4,12,12v6.1c0,6.6-5.4,12-12,12H186.3c-6.6,0-12-5.4-12-12v-6.1
        C174.3,588.8,179.7,583.4,186.3,583.4z"/>
      <ellipse class="st5" cx="357.8" cy="598.7" rx="9.8" ry="11.2"/>
      <path class="st6" d="M352.9,603.6c2.6,2.8,6.9,2.9,9.7,0.3c0.4-0.3,0.7-0.7,0.9-1.1"/>
      <path d="M353.9,597.8c0.6-0.1,1.1-0.6,1.1-1.3c-0.1-0.6-0.5-1-1.1-1.1c-0.6,0.1-1.1,0.6-1.1,1.3
        C352.9,597.4,353.4,597.8,353.9,597.8z"/>
      <path d="M361.3,597.8c0.6-0.1,1.1-0.6,1.1-1.3c-0.1-0.6-0.5-1-1.1-1.1c-0.6,0.1-1.1,0.6-1.1,1.3
        C360.3,597.4,360.8,597.8,361.3,597.8z"/>
    </g>
    <g id="chat_bubbles">
      <path class="st7" d="M122.6,286.9h75c6.6,0,12,5.4,12,12v8c0,6.6-5.4,12-12,12h-75c-6.6,0-12-5.4-12-12v-8
        C110.6,292.3,116,286.9,122.6,286.9z"/>
      <path d="M125,302c-0.4-1-1-1.8-1.9-1.8c-0.6,0-1.1,0.5-1.1,1.1c0,0,0,0.1,0,0.1c0,0.7,0.7,1.1,1.5,1.4c1.4,0.5,2.4,1.2,2.4,2.4
        c0,1.6-1.6,2.5-3.1,2.5c-0.7,0-1.5-0.2-2.1-0.6c-0.2-0.7-0.3-1.4-0.3-2.2l0.5-0.1c0.3,1.2,1.2,2.2,2.3,2.2c0.7,0,1.2-0.5,1.3-1.2
        c0,0,0,0,0,0c0-0.7-0.5-1.1-1.4-1.5s-2.3-1.1-2.3-2.5s1.1-2.3,2.8-2.3c0.6,0,1.1,0.1,1.7,0.3c0.2,0.6,0.3,1.2,0.4,1.9L125,302z"/>
      <path d="M131.3,299.7c2.2-0.1,4,1.6,4.1,3.8c0,0,0,0.1,0,0.1c0.1,2.2-1.6,4.1-3.8,4.1c-0.1,0-0.2,0-0.2,0c-2.2,0.1-4-1.5-4.2-3.7
        c0-0.1,0-0.1,0-0.2C127.2,301.6,129,299.7,131.3,299.7C131.3,299.7,131.3,299.7,131.3,299.7L131.3,299.7z M131.1,300.3
        c-1.1,0-2.1,1-2.1,3c0,2.2,1,3.8,2.5,3.8c1.1,0,2-0.7,2-3.1C133.5,301.9,132.7,300.3,131.1,300.3L131.1,300.3z"/>
      <path d="M139.3,301.6c0.6-1,1.4-1.9,2.2-1.9c0.6,0,1,0.5,0.9,1.1c0,0.3-0.2,0.6-0.5,0.8c-0.1,0.1-0.3,0.1-0.5,0
        c-0.2-0.2-0.5-0.4-0.8-0.4c-0.5,0-1,0.5-1.4,1.4v3.1c0,1.2,0.1,1.3,1.5,1.4v0.5h-4.4v-0.5c1.1-0.1,1.3-0.2,1.3-1.4v-3.6
        c0-1.1-0.1-1.2-1.1-1.3v-0.4c0.9-0.1,1.8-0.4,2.7-0.7L139.3,301.6L139.3,301.6z"/>
      <path d="M146.4,301.6c0.6-1,1.4-1.9,2.2-1.9c0.6,0,1,0.5,0.9,1.1c0,0.3-0.2,0.6-0.5,0.8c-0.2,0.1-0.3,0.1-0.5,0
        c-0.2-0.2-0.5-0.4-0.8-0.4c-0.5,0-1,0.5-1.4,1.4v3.1c0,1.2,0.1,1.3,1.5,1.4v0.5h-4.4v-0.5c1.1-0.1,1.3-0.2,1.3-1.4v-3.6
        c0-1.1-0.1-1.2-1.1-1.3v-0.4c0.9-0.1,1.8-0.4,2.7-0.7L146.4,301.6L146.4,301.6z"/>
      <path d="M159.2,300.4c-1,0.2-1.1,0.3-1.6,1.3s-1.1,2.4-2.3,5.2c-0.8,1.5-1.4,3.1-2,4.8c-0.1,0.3-0.3,0.4-0.6,0.4
        c-0.5,0-1.1-0.4-1.1-0.9c0-0.3,0.2-0.4,0.5-0.7c0.6-0.3,1.2-0.9,1.5-1.6c0.2-0.4,0.4-0.7,0.6-1.1c0.1-0.3,0.1-0.5,0-0.8
        c-0.8-2.1-1.6-4.2-2.1-5.4c-0.4-0.9-0.6-1.1-1.6-1.3v-0.4h3.9v0.5c-0.9,0.1-1,0.3-0.7,0.9l1.6,4.3c0.5-1.1,1.3-3.2,1.6-4.2
        c0.2-0.6,0.1-0.8-0.9-1v-0.5h3.4L159.2,300.4z"/>
      <path d="M174.6,307.5V307c1-0.1,1.2-0.2,1.2-1.4v-2.8c0-1.3-0.5-2-1.6-2c-0.7,0.1-1.4,0.4-2,0.9c0,0.2,0.1,0.5,0,0.7v3.4
        c0,1.1,0.2,1.2,1.2,1.3v0.5h-4v-0.5c1.1-0.1,1.3-0.2,1.3-1.3v-3c0-1.3-0.5-2-1.6-2c-0.7,0.1-1.4,0.4-1.9,0.9v4.1
        c0,1.1,0.2,1.2,1,1.3v0.5h-4V307c1.2-0.1,1.4-0.2,1.4-1.4v-3.5c0-1.1-0.1-1.2-1.1-1.4v-0.4c0.9-0.1,1.8-0.4,2.7-0.7v1.4
        c0.4-0.2,0.8-0.6,1.4-0.9c0.5-0.3,1-0.5,1.5-0.5c0.9,0,1.7,0.6,2,1.4c0.5-0.4,1.1-0.7,1.5-1c0.4-0.3,0.9-0.4,1.4-0.5
        c1.5,0,2.4,1,2.4,2.7v3.3c0,1.1,0.1,1.2,1.2,1.3v0.5L174.6,307.5z"/>
      <path d="M185.4,307.7c-0.3,0-0.7-0.1-0.9-0.3c-0.2-0.2-0.4-0.5-0.4-0.7c-0.6,0.5-1.4,0.9-2.1,1.1c-1.2,0-2.2-0.9-2.3-2.1
        c0,0,0,0,0,0c0-0.9,0.5-1.4,1.5-1.7c1-0.3,1.9-0.6,2.8-1.1v-0.3c0-1.3-0.6-1.9-1.5-1.9c-0.3,0-0.6,0.1-0.8,0.3
        c-0.3,0.3-0.5,0.7-0.6,1.2c-0.1,0.3-0.3,0.4-0.6,0.4c-0.4,0-0.8-0.4-0.8-0.8c0-0.3,0.2-0.5,0.6-0.7c0.9-0.6,1.8-1,2.8-1.2
        c0.5,0,1.1,0.1,1.5,0.5c0.6,0.6,1,1.4,0.9,2.2v3.1c0,0.8,0.3,1,0.7,1c0.2,0,0.4-0.1,0.6-0.2l0.2,0.5L185.4,307.7z M184,303.3
        c-0.4,0.2-1.1,0.5-1.5,0.7c-0.7,0.3-1.1,0.6-1.1,1.3c0,0.7,0.5,1.3,1.2,1.3c0,0,0,0,0.1,0c0.5,0,1-0.2,1.3-0.6L184,303.3z"/>
      <path d="M192.8,307.5V307c1-0.1,1.2-0.2,1.2-1.5v-2.8c0-1.2-0.5-2-1.6-2c-0.7,0.1-1.4,0.4-1.9,0.9v4c0,1.2,0.1,1.3,1.2,1.4v0.5
        h-4.1V307c1.2-0.1,1.3-0.2,1.3-1.4v-3.5c0-1.1-0.1-1.2-1.1-1.4v-0.4c0.9-0.1,1.8-0.4,2.7-0.7v1.4c0.4-0.3,0.8-0.5,1.2-0.8
        c0.4-0.3,1-0.5,1.5-0.5c1.5,0,2.4,1,2.4,2.7v3.3c0,1.2,0.1,1.2,1.2,1.4v0.5L192.8,307.5z"/>
      <path class="st8" d="M123.1,330.4h150c6.6,0,12,5.4,12,12v21c0,6.6-5.4,12-12,12h-150c-6.6,0-12-5.4-12-12v-21
        C111.1,335.8,116.5,330.4,123.1,330.4z"/>
      <path d="M122.2,358.5V358c1.1-0.1,1.3-0.2,1.3-1.4v-3.5c0-1.1-0.1-1.2-1.1-1.4v-0.4c0.9-0.1,1.9-0.4,2.7-0.7v6
        c0,1.2,0.1,1.3,1.3,1.4v0.5L122.2,358.5z M123.2,348.3c0-0.6,0.4-1,1-1c0.5-0.2,1.1,0.1,1.2,0.7c0.2,0.5-0.1,1.1-0.7,1.2
        c-0.2,0.1-0.4,0.1-0.6,0C123.6,349.2,123.2,348.8,123.2,348.3L123.2,348.3z"/>
      <path d="M137.4,358.5V358c1-0.1,1.2-0.2,1.2-1.4v-2.8c0-1.3-0.5-2-1.6-2c-0.7,0.1-1.4,0.4-1.9,0.9c0,0.2,0,0.5,0.1,0.7v3.4
        c0,1.1,0.2,1.2,1.2,1.3v0.5h-4v-0.5c1.1-0.1,1.3-0.2,1.3-1.3v-3c0-1.3-0.5-2-1.6-2c-0.7,0.1-1.4,0.4-1.9,0.9v4.1
        c0,1.1,0.2,1.2,1,1.3v0.5h-4V358c1.2-0.1,1.4-0.2,1.4-1.4v-3.5c0-1.1-0.1-1.2-1.1-1.4v-0.4c0.9-0.1,1.8-0.4,2.7-0.7v1.4
        c0.4-0.2,0.8-0.6,1.3-0.9c0.5-0.3,1-0.5,1.5-0.5c0.9,0,1.7,0.6,2,1.4c0.5-0.4,1.1-0.7,1.5-1c0.4-0.3,0.9-0.4,1.4-0.5
        c1.4,0,2.4,1,2.4,2.7v3.3c0,1.2,0.1,1.2,1.2,1.3v0.5L137.4,358.5z"/>
      <path d="M147.3,358.5V358c1.1-0.1,1.3-0.2,1.3-1.4v-3.5c0-1.1-0.1-1.2-1.1-1.4v-0.4c0.9-0.1,1.9-0.4,2.7-0.7v6
        c0,1.2,0.1,1.3,1.3,1.4v0.5L147.3,358.5z M148.3,348.3c0-0.6,0.4-1,1-1s1,0.4,1,1c0,0.5-0.5,0.9-1,0.9
        C148.8,349.2,148.3,348.8,148.3,348.3L148.3,348.3z"/>
      <path d="M157.6,358.5V358c1.1-0.1,1.2-0.2,1.2-1.5v-2.8c0-1.2-0.5-2-1.6-2c-0.7,0.1-1.4,0.4-1.9,0.9v4c0,1.2,0.1,1.3,1.2,1.4v0.5
        h-4.1V358c1.2-0.1,1.3-0.2,1.3-1.4v-3.5c0-1.1-0.1-1.2-1.1-1.4v-0.4c0.9-0.1,1.8-0.4,2.7-0.7v1.4c0.4-0.3,0.8-0.5,1.2-0.8
        c0.4-0.3,1-0.5,1.5-0.5c1.5,0,2.4,1,2.4,2.7v3.3c0,1.2,0.1,1.2,1.2,1.4v0.5L157.6,358.5z"/>
      <path d="M171.2,358.5c-0.2,0.1-0.5,0.2-0.8,0.2c-1.2,0-1.9-0.7-1.9-2.1v-5h-1.2l-0.1-0.2l0.5-0.5h0.9v-1.3l1.3-1.2h0.2v2.5h2
        c0.2,0.2,0.1,0.5-0.1,0.7c0,0,0,0,0,0h-1.9v4.4c0,1.4,0.6,1.7,1.1,1.7c0.4,0,0.8-0.1,1.1-0.3l0.2,0.5L171.2,358.5z"/>
      <path d="M178.3,358.5V358c1-0.1,1.2-0.2,1.2-1.4v-2.8c0-1.5-0.6-2.1-1.8-2.1c-0.7,0-1.4,0.3-1.9,0.8v4.1c0,1.1,0.1,1.3,1.2,1.4
        v0.5h-4V358c1.1-0.1,1.3-0.2,1.3-1.4v-8.3c0-1.1,0-1.2-1.2-1.3v-0.4c0.9-0.1,1.9-0.3,2.8-0.6v5.8c0.7-0.7,1.6-1.2,2.6-1.3
        c1.5,0,2.6,0.9,2.6,3v3c0,1.2,0.1,1.3,1.2,1.4v0.5L178.3,358.5z"/>
      <path d="M189.9,357c-0.7,1-1.9,1.6-3.1,1.8c-1.9,0-3.6-1.5-3.6-3.5c0-0.1,0-0.2,0-0.2c0-1.1,0.4-2.2,1.2-3
        c0.7-0.8,1.7-1.3,2.8-1.3l0,0c1.5,0,2.7,1.2,2.8,2.7c0,0.3-0.1,0.5-0.4,0.6s-2.6,0.2-4.8,0.3c0,2.3,1.4,3.2,2.7,3.2
        c0.8,0,1.6-0.3,2.1-0.9L189.9,357z M186.7,351.3c-0.8,0-1.6,0.7-1.8,2.1c1,0,2,0,3,0c0.3,0,0.4-0.1,0.4-0.3
        C188.4,352.3,187.7,351.5,186.7,351.3C186.8,351.4,186.8,351.4,186.7,351.3L186.7,351.3z"/>
      <path d="M195.7,358.5V358c1.1-0.1,1.3-0.2,1.3-1.4v-8.2c0-1.2-0.1-1.2-1.3-1.3v-0.4c1-0.1,1.9-0.3,2.8-0.6v10.6
        c0,1.2,0.2,1.3,1.4,1.4v0.5H195.7z"/>
      <path d="M200.7,358.5V358c1.1-0.1,1.3-0.2,1.3-1.4v-3.5c0-1.1-0.1-1.2-1.1-1.4v-0.4c0.9-0.1,1.9-0.4,2.7-0.7v6
        c0,1.2,0.1,1.3,1.3,1.4v0.5L200.7,358.5z M201.7,348.3c0-0.6,0.4-1,1-1c0.5-0.2,1.1,0.1,1.2,0.7c0.2,0.5-0.1,1.1-0.7,1.2
        c-0.2,0.1-0.4,0.1-0.6,0C202.2,349.2,201.7,348.8,201.7,348.3L201.7,348.3z"/>
      <path d="M209.4,350.9c0.3-0.1,0.5-0.2,0.8-0.2c2,0,3.7,1.6,3.7,3.7l0,0c-0.1,2.5-2.2,4.4-4.6,4.4c0,0,0,0,0,0
        c-1,0-1.9-0.2-2.8-0.6v-9.7c0-1.1-0.1-1.2-1.2-1.3v-0.4c0.9-0.1,1.9-0.3,2.8-0.6v5.4L209.4,350.9z M208,356.5c0,0.2,0,0.4,0.1,0.6
        c0.3,0.6,0.9,1,1.6,1c1.5,0,2.4-1.2,2.4-3.2c0.2-1.5-0.9-2.9-2.5-3.1c-0.1,0-0.2,0-0.3,0c-0.5,0-0.9,0.1-1.4,0.3V356.5z"/>
      <path d="M217.8,352.6c0.6-1,1.4-1.9,2.2-1.9c0.6,0,1,0.5,0.9,1.1c0,0.3-0.2,0.6-0.5,0.8c-0.1,0.1-0.3,0.1-0.5,0
        c-0.2-0.2-0.5-0.4-0.8-0.4c-0.5,0-1,0.5-1.4,1.4v3.1c0,1.2,0.1,1.3,1.5,1.4v0.5h-4.4v-0.5c1.1-0.1,1.3-0.2,1.3-1.4v-3.6
        c0-1.1-0.1-1.2-1.1-1.3v-0.4c0.9-0.1,1.8-0.4,2.7-0.7L217.8,352.6L217.8,352.6z"/>
      <path d="M227.8,358.7c-0.3,0-0.7-0.1-0.9-0.3c-0.2-0.2-0.4-0.5-0.5-0.7c-0.6,0.5-1.4,0.9-2.1,1.1c-1.2,0-2.2-0.9-2.3-2.1
        c0,0,0,0,0,0c0-0.9,0.5-1.4,1.5-1.7c1-0.3,1.9-0.6,2.8-1.1v-0.3c0-1.3-0.6-1.9-1.5-1.9c-0.3,0-0.6,0.1-0.8,0.3
        c-0.3,0.3-0.5,0.7-0.5,1.2c-0.1,0.3-0.3,0.4-0.6,0.4c-0.4,0-0.8-0.4-0.8-0.8c0-0.3,0.2-0.5,0.6-0.7c0.9-0.6,1.8-1,2.8-1.2
        c0.5,0,1.1,0.1,1.5,0.5c0.6,0.5,1,1.4,0.9,2.2v3.1c0,0.8,0.3,1,0.6,1c0.2,0,0.5-0.1,0.7-0.2l0.2,0.5L227.8,358.7z M226.4,354.3
        c-0.4,0.2-1.1,0.5-1.5,0.7c-0.7,0.3-1.1,0.6-1.1,1.3c0,0.7,0.5,1.3,1.2,1.3c0,0,0,0,0.1,0c0.5,0,1-0.2,1.4-0.6L226.4,354.3z"/>
      <path d="M232.8,352.6c0.6-1,1.4-1.9,2.2-1.9c0.6,0,1,0.5,0.9,1.1c0,0.3-0.2,0.6-0.5,0.8c-0.2,0.1-0.3,0.1-0.5,0
        c-0.2-0.2-0.5-0.4-0.8-0.4c-0.5,0-1,0.5-1.4,1.4v3.1c0,1.2,0.1,1.3,1.5,1.4v0.5h-4.4v-0.5c1.1-0.1,1.3-0.2,1.3-1.4v-3.6
        c0-1.1-0.1-1.2-1.1-1.3v-0.4c0.9-0.1,1.8-0.4,2.7-0.7L232.8,352.6L232.8,352.6z"/>
      <path d="M245.7,351.4c-1,0.2-1.1,0.3-1.6,1.3s-1,2.4-2.3,5.2c-0.7,1.5-1.4,3.1-2,4.8c-0.1,0.3-0.3,0.4-0.6,0.4
        c-0.5,0-1.1-0.4-1.1-0.9c0-0.3,0.2-0.4,0.5-0.7c0.6-0.4,1.1-0.9,1.4-1.5c0.2-0.4,0.4-0.7,0.5-1.1c0.1-0.3,0.1-0.5,0-0.8
        c-0.8-2.1-1.6-4.2-2.1-5.4c-0.4-0.9-0.6-1.1-1.6-1.3v-0.4h3.9v0.5c-0.9,0.2-1,0.3-0.7,0.9l1.6,4.3c0.5-1.1,1.3-3.2,1.6-4.2
        c0.2-0.6,0.1-0.8-0.9-1v-0.5h3.4L245.7,351.4z"/>
      <path d="M253.8,352.6c0.6-1,1.4-1.9,2.2-1.9c0.6,0,1,0.5,0.9,1.1c0,0.3-0.2,0.6-0.5,0.8c-0.1,0.1-0.3,0.1-0.5,0
        c-0.2-0.2-0.5-0.4-0.8-0.4c-0.5,0-1,0.5-1.4,1.4v3.1c0,1.2,0.1,1.3,1.5,1.4v0.5h-4.4v-0.5c1.1-0.1,1.3-0.2,1.3-1.4v-3.6
        c0-1.1-0.1-1.2-1.1-1.3v-0.4c0.9-0.1,1.8-0.4,2.7-0.7L253.8,352.6L253.8,352.6z"/>
      <path d="M263.2,358.5V358c1-0.1,1.2-0.2,1.2-1.5v-2.8c0-1.2-0.5-2-1.6-2c-0.7,0.1-1.4,0.4-1.9,0.9v4c0,1.2,0.1,1.3,1.2,1.4v0.5
        h-4.1V358c1.2-0.1,1.3-0.2,1.3-1.4v-3.5c0-1.1-0.1-1.2-1.1-1.4v-0.4c0.9-0.1,1.8-0.4,2.7-0.7v1.4c0.4-0.3,0.8-0.5,1.2-0.8
        c0.4-0.3,1-0.5,1.5-0.5c1.5,0,2.4,1,2.4,2.7v3.3c0,1.2,0.1,1.2,1.2,1.4v0.5L263.2,358.5z"/>
      <path class="st9" d="M305.1,383.4h90c6.6,0,12,5.4,12,12v8c0,6.6-5.4,12-12,12h-90c-6.6,0-12-5.4-12-12v-8
        C293.1,388.8,298.5,383.4,305.1,383.4z"/>
      <path class="st10" d="M246.1,420.4h150c6.6,0,12,5.4,12,12v81c0,6.6-5.4,12-12,12h-150c-6.6,0-12-5.4-12-12v-81
        C234.1,425.8,239.5,420.4,246.1,420.4z"/>
      <path d="M315.5,397c0.3-0.2,0.6-0.3,1-0.3c1.8-0.1,3.2,1.3,3.3,3.1c0,0.1,0,0.1,0,0.2c0,2.6-2.2,4.3-4.6,4.7
        c-0.4,0-0.9-0.1-1.3-0.3v2.3c0,1.3,0.1,1.4,1.5,1.5v0.5h-4.5v-0.5c1.2-0.1,1.4-0.2,1.4-1.4V399c0-1.1-0.1-1.2-1.2-1.3v-0.4
        c1-0.2,1.9-0.4,2.8-0.8v1.4L315.5,397z M313.8,403.2c0.5,0.4,1.1,0.7,1.7,0.7c1.5,0,2.5-1.3,2.5-3.2s-1.2-2.9-2.5-2.9
        c-0.6,0.1-1.2,0.3-1.8,0.7L313.8,403.2z"/>
      <path d="M320.5,404.5V404c1.1-0.1,1.3-0.2,1.3-1.4v-8.2c0-1.2-0.1-1.2-1.3-1.3v-0.4c1-0.1,1.9-0.3,2.8-0.6v10.6
        c0,1.2,0.2,1.3,1.4,1.4v0.5H320.5z"/>
      <path d="M332.3,403c-0.7,1-1.9,1.6-3.1,1.8c-1.9,0-3.6-1.5-3.6-3.5c0-0.1,0-0.2,0-0.2c0-1.1,0.4-2.2,1.2-3
        c0.7-0.8,1.7-1.3,2.8-1.3l0,0c1.5,0,2.7,1.2,2.8,2.7c0,0.3-0.1,0.5-0.4,0.6c-0.3,0.1-2.6,0.2-4.8,0.3c0,2.3,1.4,3.2,2.7,3.2
        c0.8,0,1.6-0.3,2.1-0.9L332.3,403z M329.2,397.3c-0.8,0-1.6,0.7-1.8,2.1c1,0,2,0,3,0c0.3,0,0.4-0.1,0.4-0.3
        C330.8,398.3,330.2,397.5,329.2,397.3C329.2,397.4,329.2,397.4,329.2,397.3L329.2,397.3z"/>
      <path d="M339.4,404.7c-0.3,0-0.7-0.1-0.9-0.3c-0.2-0.2-0.4-0.5-0.4-0.7c-0.6,0.5-1.4,0.9-2.1,1.1c-1.2,0-2.2-0.9-2.3-2.1
        c0,0,0,0,0,0c0-0.9,0.5-1.4,1.5-1.7c1-0.3,1.9-0.6,2.8-1.1v-0.3c0-1.3-0.6-1.9-1.5-1.9c-0.3,0-0.6,0.1-0.8,0.3
        c-0.3,0.3-0.5,0.7-0.6,1.2c-0.1,0.3-0.3,0.4-0.6,0.4c-0.4,0-0.8-0.4-0.8-0.8c0-0.3,0.2-0.5,0.6-0.7c0.9-0.6,1.8-1,2.8-1.2
        c0.5,0,1.1,0.1,1.5,0.5c0.6,0.5,1,1.4,0.9,2.2v3.1c0,0.8,0.3,1,0.7,1c0.2,0,0.4-0.1,0.6-0.2l0.2,0.5L339.4,404.7z M338,400.3
        c-0.4,0.2-1.1,0.5-1.5,0.7c-0.7,0.3-1.1,0.6-1.1,1.3c0,0.7,0.5,1.3,1.2,1.3c0,0,0,0,0.1,0c0.5,0,1-0.2,1.3-0.6L338,400.3z"/>
      <path d="M346.5,399c-0.4-1-1-1.8-1.9-1.8c-0.6,0-1.1,0.5-1.1,1.1c0,0,0,0.1,0,0.1c0,0.7,0.7,1.1,1.5,1.4c1.4,0.5,2.3,1.2,2.3,2.4
        c0,1.6-1.6,2.5-3.1,2.5c-0.8,0-1.5-0.2-2.1-0.6c-0.2-0.7-0.3-1.4-0.3-2.2l0.5-0.1c0.3,1.2,1.2,2.2,2.3,2.2c0.7,0,1.2-0.5,1.3-1.2
        c0,0,0,0,0,0c0-0.7-0.5-1.1-1.4-1.5c-0.9-0.4-2.3-1.1-2.3-2.5s1.1-2.3,2.8-2.3c0.6,0,1.1,0.1,1.7,0.3c0.2,0.6,0.3,1.2,0.4,1.9
        L346.5,399z"/>
      <path d="M355.4,403c-0.7,1-1.9,1.6-3.1,1.8c-1.9,0-3.6-1.5-3.6-3.5c0-0.1,0-0.2,0-0.2c0-1.1,0.4-2.2,1.2-3
        c0.7-0.8,1.7-1.3,2.8-1.3l0,0c1.5,0,2.8,1.2,2.8,2.7c0,0.3-0.1,0.5-0.4,0.6c-0.3,0.1-2.6,0.2-4.8,0.3c0,2.3,1.4,3.2,2.7,3.2
        c0.8,0,1.6-0.3,2.1-0.9L355.4,403z M352.2,397.3c-0.8,0-1.6,0.7-1.8,2.1c1,0,2,0,3,0c0.3,0,0.4-0.1,0.4-0.3
        C353.9,398.3,353.2,397.5,352.2,397.3C352.3,397.4,352.2,397.4,352.2,397.3L352.2,397.3z"/>
      <path d="M365.1,396.9c0.3-0.1,0.5-0.2,0.8-0.2c2,0,3.7,1.6,3.7,3.7l0,0c-0.1,2.5-2.2,4.4-4.6,4.4c0,0,0,0,0,0
        c-1,0-1.9-0.2-2.8-0.6v-9.7c0-1.1-0.1-1.2-1.2-1.3v-0.4c0.9-0.1,1.9-0.3,2.8-0.6v5.4L365.1,396.9z M363.8,402.5
        c0,0.2,0,0.4,0.1,0.6c0.3,0.6,0.9,1,1.6,1c1.5,0,2.4-1.2,2.4-3.2c0.2-1.6-1-2.9-2.5-3.1c-0.1,0-0.2,0-0.2,0
        c-0.5,0-0.9,0.1-1.4,0.3V402.5z"/>
      <path d="M373.6,398.6c0.6-1,1.4-1.9,2.2-1.9c0.6,0,1,0.5,0.9,1.1c0,0.3-0.2,0.6-0.5,0.8c-0.1,0.1-0.3,0.1-0.5,0
        c-0.2-0.2-0.5-0.4-0.8-0.4c-0.5,0-1,0.5-1.4,1.4v3.1c0,1.2,0.1,1.3,1.5,1.4v0.5h-4.4v-0.5c1.1-0.1,1.3-0.2,1.3-1.4v-3.6
        c0-1.1-0.1-1.2-1.1-1.3v-0.4c0.9-0.1,1.8-0.4,2.7-0.7L373.6,398.6L373.6,398.6z"/>
      <path d="M381.6,396.7c2.2-0.1,4,1.6,4.1,3.8c0,0,0,0,0,0.1c0.1,2.2-1.6,4.1-3.8,4.1c-0.1,0-0.2,0-0.2,0c-2.2,0.1-4-1.5-4.2-3.7
        c0-0.1,0-0.1,0-0.2C377.5,398.6,379.3,396.7,381.6,396.7C381.6,396.7,381.6,396.7,381.6,396.7L381.6,396.7z M381.4,397.3
        c-1.1,0-2,1-2,3c0,2.2,1,3.8,2.5,3.8c1.1,0,2-0.7,2-3.1C383.8,398.9,383,397.3,381.4,397.3L381.4,397.3z"/>
      <path class="st11" d="M273.1,532.4h120c6.6,0,12,5.4,12,12v8c0,6.6-5.4,12-12,12h-120c-6.6,0-12-5.4-12-12v-8
        C261.1,537.8,266.5,532.4,273.1,532.4z"/>
      <path d="M283,555.7c-0.3,0-0.7-0.1-0.9-0.3c-0.2-0.2-0.4-0.5-0.5-0.8c-0.6,0.5-1.3,0.9-2.1,1.1c-1.2,0-2.2-0.9-2.3-2.1
        c0,0,0,0,0,0c0-0.9,0.5-1.4,1.5-1.7c1-0.3,1.9-0.6,2.8-1.1v-0.3c0-1.3-0.6-1.9-1.5-1.9c-0.3,0-0.6,0.1-0.8,0.3
        c-0.3,0.3-0.5,0.8-0.5,1.2c-0.1,0.3-0.3,0.4-0.6,0.4c-0.4,0-0.8-0.4-0.8-0.8c0-0.3,0.2-0.5,0.6-0.7c0.9-0.6,1.8-1,2.8-1.2
        c0.5,0,1.1,0.1,1.5,0.5c0.6,0.5,1,1.4,0.9,2.2v3.1c0,0.8,0.3,1,0.6,1c0.2,0,0.5-0.1,0.7-0.2l0.2,0.5L283,555.7z M281.6,551.3
        c-0.4,0.2-1.1,0.5-1.5,0.7c-0.7,0.3-1.1,0.6-1.1,1.3c0,0.7,0.5,1.3,1.2,1.3c0,0,0,0,0.1,0c0.5,0,1-0.2,1.3-0.6V551.3z"/>
      <path d="M285.1,555.5V555c1.1-0.1,1.3-0.2,1.3-1.4v-8.2c0-1.2-0.1-1.2-1.3-1.3v-0.4c1-0.1,1.9-0.3,2.8-0.6v10.6
        c0,1.2,0.2,1.3,1.4,1.4v0.5H285.1z"/>
      <path d="M293.1,549.6c0.6-1,1.3-1.9,2.2-1.9c0.6,0,1,0.5,0.9,1.1c0,0.3-0.2,0.6-0.5,0.8c-0.1,0.1-0.3,0.1-0.5,0
        c-0.2-0.2-0.5-0.4-0.8-0.4c-0.5,0-1,0.5-1.4,1.4v3.1c0,1.2,0.1,1.3,1.5,1.4v0.5h-4.4v-0.5c1.1-0.1,1.3-0.2,1.3-1.4v-3.6
        c0-1.1-0.1-1.2-1.1-1.3v-0.4c0.9-0.1,1.8-0.4,2.7-0.7L293.1,549.6L293.1,549.6z"/>
      <path d="M303.7,554c-0.7,1-1.9,1.6-3.1,1.8c-2,0-3.6-1.5-3.6-3.5c0-0.1,0-0.1,0-0.2c0-1.1,0.4-2.2,1.2-3c0.7-0.8,1.7-1.3,2.8-1.3
        l0,0c1.5,0,2.7,1.2,2.8,2.7c0,0.3-0.1,0.5-0.4,0.6c-0.3,0.1-2.6,0.2-4.8,0.3c0,2.3,1.4,3.2,2.7,3.2c0.8,0,1.6-0.3,2.1-0.9
        L303.7,554z M300.5,548.3c-0.8,0-1.6,0.7-1.8,2.1c1,0,2,0,3,0c0.3,0,0.4-0.1,0.4-0.3C302.1,549.3,301.5,548.5,300.5,548.3
        C300.5,548.4,300.5,548.4,300.5,548.3L300.5,548.3z"/>
      <path d="M310.7,555.7c-0.3,0-0.7-0.1-0.9-0.3c-0.2-0.2-0.4-0.5-0.5-0.8c-0.6,0.5-1.3,0.9-2.1,1.1c-1.2,0-2.2-0.9-2.3-2.1
        c0,0,0,0,0,0c0-0.9,0.5-1.4,1.5-1.7c1-0.3,1.9-0.6,2.8-1.1v-0.3c0-1.3-0.6-1.9-1.5-1.9c-0.3,0-0.6,0.1-0.8,0.3
        c-0.3,0.3-0.5,0.8-0.5,1.2c-0.1,0.3-0.3,0.4-0.6,0.4c-0.4,0-0.8-0.4-0.8-0.8c0-0.3,0.2-0.5,0.6-0.7c0.9-0.6,1.8-1,2.8-1.2
        c0.5,0,1.1,0.1,1.5,0.5c0.6,0.5,1,1.4,0.9,2.2v3.1c0,0.8,0.3,1,0.7,1c0.2,0,0.5-0.1,0.7-0.2l0.2,0.5L310.7,555.7z M309.3,551.3
        c-0.4,0.2-1.1,0.5-1.5,0.7c-0.7,0.3-1.1,0.6-1.1,1.3c0,0.7,0.5,1.3,1.2,1.3c0,0,0,0,0.1,0c0.5,0,1-0.2,1.3-0.6L309.3,551.3z"/>
      <path d="M322.1,555.1c-1,0.2-2,0.4-3,0.7v-1.1l-1.1,0.6c-0.4,0.3-0.9,0.4-1.4,0.5c-2-0.1-3.6-1.7-3.5-3.7c0,0,0,0,0,0
        c0.2-2.5,2.3-4.4,4.8-4.3c0.4,0,0.8,0.1,1.2,0.2v-2.5c0-1.1-0.1-1.2-1.4-1.3v-0.5c1-0.1,2-0.3,3-0.6v10.4c0,1,0.1,1,0.9,1.1l0.5,0
        L322.1,555.1z M319.1,549.3c-0.4-0.6-1.1-0.9-1.9-0.9c-0.8,0-2.3,0.6-2.3,3.2c0,2.1,1.4,3,2.5,3c0.6,0,1.2-0.2,1.7-0.5V549.3z"/>
      <path d="M331,548.4c-1,0.2-1.1,0.3-1.6,1.3s-1,2.4-2.3,5.2c-0.7,1.5-1.4,3.1-2,4.8c-0.1,0.3-0.3,0.4-0.6,0.4c-0.5,0-1-0.4-1.1-0.9
        c0-0.3,0.2-0.4,0.5-0.7c0.6-0.4,1.1-0.9,1.4-1.5c0.2-0.4,0.4-0.7,0.5-1.1c0.1-0.3,0.1-0.5,0-0.8c-0.8-2.1-1.6-4.2-2.1-5.4
        c-0.4-0.9-0.6-1.1-1.6-1.3v-0.4h3.9v0.5c-0.9,0.2-1,0.3-0.7,0.9l1.7,4.3c0.5-1.1,1.3-3.2,1.6-4.2c0.2-0.6,0.1-0.8-0.9-1v-0.5h3.3
        L331,548.4z"/>
      <path d="M340.4,547.7c2.2-0.1,4,1.6,4.1,3.8c0,0,0,0.1,0,0.1c0.1,2.2-1.6,4.1-3.8,4.2c-0.1,0-0.2,0-0.2,0c-2.2,0.1-4-1.5-4.2-3.7
        c0-0.1,0-0.1,0-0.2C336.2,549.6,338.1,547.7,340.4,547.7C340.4,547.7,340.4,547.7,340.4,547.7L340.4,547.7z M340.2,548.3
        c-1.1,0-2,1-2,3c0,2.2,1,3.8,2.5,3.8c1.1,0,2-0.7,2-3.1C342.6,549.9,341.8,548.3,340.2,548.3L340.2,548.3z"/>
      <path d="M348.4,549.6c0.6-1,1.4-1.9,2.2-1.9c0.6,0,1,0.5,0.9,1.1c0,0.3-0.2,0.6-0.5,0.8c-0.1,0.1-0.3,0.1-0.5,0
        c-0.2-0.2-0.5-0.4-0.8-0.4c-0.5,0-1,0.5-1.4,1.4v3.1c0,1.2,0.1,1.3,1.5,1.4v0.5h-4.4v-0.5c1.1-0.1,1.3-0.2,1.3-1.4v-3.6
        c0-1.1-0.1-1.2-1.1-1.3v-0.4c0.9-0.1,1.8-0.4,2.7-0.7L348.4,549.6L348.4,549.6z"/>
      <path d="M361.3,555.1c-1,0.2-2,0.4-3,0.7v-1.1l-1.1,0.6c-0.4,0.3-0.9,0.4-1.4,0.5c-2-0.1-3.5-1.7-3.5-3.7c0,0,0,0,0,0
        c0.2-2.5,2.3-4.4,4.8-4.3c0.4,0,0.8,0.1,1.2,0.2v-2.5c0-1.1-0.1-1.2-1.4-1.3v-0.5c1-0.1,2-0.3,3-0.6v10.4c0,1,0.1,1,0.9,1.1l0.5,0
        L361.3,555.1z M358.3,549.3c-0.4-0.6-1.1-0.9-1.9-0.9c-0.8,0-2.3,0.6-2.3,3.2c0,2.1,1.4,3,2.5,3c0.6,0,1.2-0.2,1.7-0.5
        L358.3,549.3z"/>
      <path d="M368.8,554c-0.7,1-1.9,1.6-3.1,1.8c-1.9,0-3.6-1.5-3.6-3.5c0-0.1,0-0.2,0-0.2c0-1.1,0.4-2.2,1.2-3
        c0.7-0.8,1.7-1.3,2.8-1.3l0,0c1.5,0,2.7,1.2,2.8,2.7c0,0.3-0.1,0.5-0.4,0.6c-0.3,0.1-2.6,0.2-4.8,0.3c0,2.3,1.4,3.2,2.7,3.2
        c0.8,0,1.6-0.3,2.1-0.9L368.8,554z M365.7,548.3c-0.8,0-1.6,0.7-1.8,2.1c1,0,2,0,3,0c0.3,0,0.4-0.1,0.4-0.3
        C367.3,549.3,366.6,548.5,365.7,548.3C365.7,548.4,365.7,548.4,365.7,548.3L365.7,548.3z"/>
      <path d="M372.8,549.6c0.6-1,1.4-1.9,2.2-1.9c0.6,0,1,0.5,0.9,1.1c0,0.3-0.2,0.6-0.5,0.8c-0.1,0.1-0.3,0.1-0.5,0
        c-0.2-0.2-0.5-0.4-0.8-0.4c-0.5,0-1,0.5-1.4,1.4v3.1c0,1.2,0.1,1.3,1.5,1.4v0.5h-4.4v-0.5c1.1-0.1,1.3-0.2,1.3-1.4v-3.6
        c0-1.1-0.1-1.2-1.1-1.3v-0.4c0.9-0.1,1.8-0.4,2.7-0.7L372.8,549.6L372.8,549.6z"/>
      <path d="M383.5,554c-0.7,1-1.9,1.6-3.1,1.8c-1.9,0-3.6-1.5-3.6-3.5c0-0.1,0-0.2,0-0.2c0-1.1,0.4-2.2,1.2-3
        c0.7-0.8,1.7-1.3,2.8-1.3l0,0c1.5,0,2.7,1.2,2.8,2.7c0,0.3-0.1,0.5-0.4,0.6c-0.3,0.1-2.6,0.2-4.8,0.3c0,2.3,1.4,3.2,2.7,3.2
        c0.8,0,1.6-0.3,2.1-0.9L383.5,554z M380.3,548.3c-0.8,0-1.6,0.7-1.8,2.1c1,0,2,0,3,0c0.3,0,0.4-0.1,0.4-0.3
        C381.9,549.3,381.2,548.5,380.3,548.3C380.3,548.4,380.3,548.4,380.3,548.3L380.3,548.3z"/>
      <path d="M393.7,555.1c-1,0.2-2,0.4-3,0.7v-1.1l-1.1,0.6c-0.4,0.3-0.9,0.4-1.4,0.5c-2-0.1-3.5-1.7-3.5-3.7c0,0,0,0,0,0
        c0.2-2.5,2.3-4.4,4.8-4.3c0.4,0,0.8,0.1,1.2,0.2v-2.5c0-1.1-0.1-1.2-1.4-1.3v-0.5c1-0.1,2-0.3,3-0.6v10.4c0,1,0.1,1,0.9,1.1l0.5,0
        L393.7,555.1z M390.7,549.3c-0.4-0.6-1.1-0.9-1.9-0.9c-0.8,0-2.3,0.6-2.3,3.2c0,2.1,1.4,3,2.5,3c0.6,0,1.2-0.2,1.7-0.5V549.3z"/>
      <path class="st12" d="M283.6,181.4h112c6.4,0,11.5,5.1,11.5,11.5v18c0,6.4-5.1,11.5-11.5,11.5h-112c-6.4,0-11.5-5.1-11.5-11.5v-18
        C272.1,186.6,277.2,181.4,283.6,181.4z"/>
      <path d="M395.6,181.9c6.1,0,11,4.9,11,11l0,0v18c0,6.1-4.9,11-11,11l0,0h-112c-6.1,0-11-4.9-11-11l0,0v-18c0-6.1,4.9-11,11-11l0,0
        H395.6 M395.6,180.9h-112c-6.6,0-12,5.4-12,12v18c0,6.6,5.4,12,12,12h112c6.6,0,12-5.4,12-12v-18
        C407.6,186.3,402.2,180.9,395.6,180.9z"/>
      <path d="M304.4,199.4c-1,0.1-1.1,0.3-1.6,1.3s-1,2.4-2.3,5.2c-0.8,1.5-1.4,3.1-2,4.8c-0.1,0.3-0.3,0.4-0.6,0.4
        c-0.5,0-1-0.4-1.1-0.9c0-0.3,0.2-0.4,0.5-0.6c0.6-0.4,1.2-0.9,1.5-1.6c0.2-0.4,0.4-0.7,0.5-1.1c0.1-0.3,0.1-0.5,0-0.8
        c-0.8-2.1-1.6-4.2-2.1-5.4c-0.4-0.9-0.6-1.1-1.6-1.3v-0.4h3.9v0.5c-0.9,0.1-1,0.3-0.7,0.9l1.7,4.3c0.5-1.1,1.3-3.2,1.6-4.2
        c0.2-0.6,0.1-0.8-0.9-1v-0.4h3.3L304.4,199.4z"/>
      <path d="M308.8,198.7c2.2-0.1,4,1.6,4.1,3.8c0,0,0,0.1,0,0.1c0.1,2.2-1.6,4.1-3.8,4.1c-0.1,0-0.2,0-0.2,0c-2.2,0.1-4-1.5-4.2-3.6
        c0-0.1,0-0.1,0-0.2C304.6,200.6,306.4,198.7,308.8,198.7C308.7,198.7,308.7,198.7,308.8,198.7L308.8,198.7z M308.5,199.3
        c-1.1,0-2,1-2,3c0,2.2,1,3.8,2.5,3.8c1.1,0,2-0.7,2-3.1C311,200.9,310.2,199.3,308.5,199.3L308.5,199.3z"/>
      <path d="M320.3,198.9v-0.4c0-0.5,0.1-1,0.2-1.4c0.3-0.8,0.8-1.5,1.5-2c0.6-0.5,1.3-0.8,2-1c0.6,0,1.1,0.2,1.5,0.6
        c0.2,0.2,0.2,0.5,0.1,0.7c-0.1,0.2-0.2,0.3-0.4,0.4c-0.1,0.1-0.3,0.2-0.5,0c0,0,0,0,0,0c-0.4-0.4-0.9-0.6-1.5-0.7
        c-0.4,0-0.8,0.2-0.9,0.5c-0.3,0.8-0.5,1.7-0.4,2.6v0.7h2.2c0.1,0.3,0,0.6-0.2,0.7h-2v4.9c0,1.3,0.1,1.4,1.6,1.5v0.5h-4.5v-0.5
        c1.2-0.1,1.3-0.2,1.3-1.4v-5.1h-1.3l-0.1-0.2l0.5-0.5L320.3,198.9z"/>
      <path d="M327.7,200.6c0.6-1,1.4-1.9,2.2-1.9c0.6,0,1,0.5,0.9,1.1c0,0.3-0.2,0.6-0.5,0.8c-0.2,0.1-0.3,0.1-0.5,0
        c-0.2-0.2-0.5-0.4-0.8-0.4c-0.5,0-1,0.5-1.4,1.4v3.1c0,1.1,0.1,1.3,1.5,1.4v0.5h-4.4v-0.5c1.1-0.1,1.3-0.2,1.3-1.4v-3.6
        c0-1.1-0.1-1.2-1.1-1.3v-0.4c0.9-0.1,1.8-0.4,2.7-0.7L327.7,200.6L327.7,200.6z"/>
      <path d="M338.3,205c-0.7,1-1.9,1.6-3.1,1.8c-1.9,0-3.6-1.5-3.6-3.5c0-0.1,0-0.2,0-0.2c0-1.1,0.4-2.2,1.2-3
        c0.7-0.8,1.7-1.3,2.8-1.3l0,0c1.5,0,2.7,1.2,2.8,2.7c0,0.3-0.1,0.5-0.4,0.6c-0.3,0.1-2.6,0.2-4.8,0.3c0,2.3,1.4,3.2,2.7,3.2
        c0.8,0,1.6-0.3,2.1-0.9L338.3,205z M335.1,199.3c-0.8,0-1.6,0.7-1.8,2.1c1,0,2,0,3,0c0.3,0,0.4-0.1,0.4-0.3
        C336.8,200.3,336.1,199.5,335.1,199.3C335.2,199.4,335.2,199.4,335.1,199.3L335.1,199.3z"/>
      <path d="M348.6,206.1c-1,0.2-2,0.4-3,0.6v-1.1l-1.1,0.6c-0.4,0.3-0.9,0.4-1.4,0.5c-2-0.1-3.5-1.7-3.5-3.7c0,0,0,0,0,0
        c0.2-2.5,2.3-4.4,4.8-4.3c0.4,0,0.8,0.1,1.2,0.2v-2.5c0-1.1-0.1-1.2-1.4-1.3v-0.5c1-0.1,2-0.3,3-0.6v10.4c0,1,0.1,1,0.9,1.1l0.5,0
        L348.6,206.1z M345.6,200.3c-0.4-0.6-1.1-0.9-1.9-0.9c-0.8,0-2.3,0.6-2.3,3.2c0,2.1,1.4,3,2.5,3c0.6,0,1.2-0.2,1.7-0.5V200.3z"/>
      <path d="M366.6,199.4c-0.9,0.1-1.1,0.4-1.5,1.3c-0.6,1.4-1.4,3.7-2.2,6.1h-0.5c-0.8-1.9-1.5-3.6-2.3-5.3c-0.7,1.8-1.4,3.5-2.2,5.3
        h-0.6c-0.7-2.1-1.4-4.1-2.1-6.2c-0.3-0.9-0.5-1-1.3-1.1v-0.4h3.9v0.5c-1.1,0.2-1.2,0.3-0.9,1.1c0.4,1.3,0.9,2.6,1.3,3.9l0,0
        c0.7-1.6,1.4-3.4,2.1-5.3h0.5c0.7,1.8,1.4,3.6,2.2,5.4l0,0c0.4-1.1,0.9-2.7,1.2-3.9c0.2-0.9,0.1-1-1.1-1.1v-0.5h3.4V199.4z"/>
      <path d="M375.4,199.4c-1,0.1-1.1,0.3-1.6,1.3s-1,2.4-2.3,5.2c-0.8,1.5-1.4,3.1-2,4.8c-0.1,0.3-0.3,0.4-0.6,0.4
        c-0.5,0-1.1-0.4-1.1-0.9c0-0.3,0.2-0.4,0.5-0.6c0.6-0.4,1.1-0.9,1.4-1.5c0.2-0.4,0.4-0.7,0.5-1.1c0.1-0.3,0.1-0.5,0-0.8
        c-0.8-2.1-1.6-4.2-2.1-5.4c-0.4-0.9-0.6-1.1-1.6-1.3v-0.4h3.9v0.5c-0.8,0.1-1,0.3-0.7,0.9l1.7,4.3c0.5-1.1,1.3-3.2,1.6-4.2
        c0.2-0.6,0.1-0.8-0.9-1v-0.4h3.4L375.4,199.4z"/>
      <path d="M381.6,206.7c-0.3,0-0.7-0.1-0.9-0.3c-0.2-0.2-0.4-0.5-0.4-0.7c-0.6,0.5-1.4,0.9-2.1,1.1c-1.2,0-2.2-0.9-2.3-2.1
        c0,0,0,0,0,0c0-0.9,0.5-1.4,1.5-1.7c1-0.3,1.9-0.6,2.8-1.1v-0.3c0-1.3-0.6-1.9-1.5-1.9c-0.3,0-0.6,0.1-0.8,0.3
        c-0.3,0.3-0.5,0.7-0.6,1.2c-0.1,0.3-0.3,0.5-0.6,0.4c-0.4,0-0.8-0.4-0.8-0.8c0-0.3,0.2-0.5,0.6-0.7c0.9-0.6,1.8-1,2.8-1.2
        c0.5,0,1.1,0.1,1.5,0.5c0.6,0.6,1,1.4,0.9,2.2v3.1c0,0.8,0.3,1,0.7,1c0.2,0,0.5-0.1,0.7-0.2l0.2,0.5L381.6,206.7z M380.1,202.3
        c-0.4,0.2-1.1,0.5-1.5,0.7c-0.7,0.3-1.1,0.6-1.1,1.3c0,0.7,0.5,1.3,1.2,1.3c0,0,0,0,0.1,0c0.5,0,1-0.2,1.3-0.6V202.3z"/>
      <path d="M387,203.1c-0.7-0.3-2.1-1.2-2.1-2.3c0-0.6,0.4-1.2,1.6-2c0.7-0.5,1.8-1.2,1.8-1.8s-0.4-0.9-1-0.9c-1.2,0-1.9,1-2.2,1
        c-0.4-0.1-0.8-0.4-0.8-0.9c0-0.3,0.2-0.5,0.4-0.7c0.5-0.4,1.1-0.6,1.8-0.7l0,0c1.6,0,2.9,1.3,3,2.8c0,0.7-0.3,1.3-0.9,1.6
        c-0.6,0.4-2,1.2-2,2c0,0.6,0.3,1.1,0.8,1.4L387,203.1z M386.7,206.7c-0.6,0-1-0.4-1-1c0,0,0,0,0-0.1c-0.1-0.6,0.4-1.1,1-1.2
        c0.6-0.1,1.1,0.4,1.2,1c0,0.1,0,0.1,0,0.2c0,0.6-0.4,1-0.9,1.1C386.8,206.7,386.8,206.7,386.7,206.7L386.7,206.7z"/>
      <path class="st13" d="M304.1,229.4h93c6.6,0,12,5.4,12,12v21c0,6.6-5.4,12-12,12h-93c-6.6,0-12-5.4-12-12v-21
        C292.1,234.8,297.5,229.4,304.1,229.4z"/>
      <path d="M319.4,248.5v-0.5c1-0.1,1.2-0.2,1.2-1.5v-2.8c0-1.2-0.5-2-1.6-2c-0.7,0.1-1.4,0.4-1.9,0.9v4c0,1.2,0.1,1.3,1.2,1.4v0.5
        h-4.1V248c1.2-0.1,1.3-0.2,1.3-1.4v-3.5c0-1.1-0.1-1.2-1.1-1.4v-0.4c0.9-0.1,1.8-0.4,2.7-0.7v1.4c0.4-0.3,0.8-0.5,1.2-0.8
        c0.4-0.3,1-0.5,1.5-0.5c1.5,0,2.4,1,2.4,2.7v3.3c0,1.2,0.1,1.2,1.2,1.4v0.5L319.4,248.5z"/>
      <path d="M331,247c-0.7,1-1.9,1.6-3.1,1.8c-2,0-3.6-1.5-3.6-3.5c0-0.1,0-0.1,0-0.2c0-1.1,0.4-2.2,1.2-3c0.7-0.8,1.7-1.3,2.8-1.3
        l0,0c1.5,0,2.8,1.2,2.8,2.7c0,0.3-0.1,0.5-0.4,0.6c-0.3,0.1-2.6,0.2-4.8,0.3c0,2.3,1.4,3.2,2.7,3.2c0.8,0,1.6-0.3,2.1-0.9L331,247
        z M327.9,241.3c-0.8,0-1.6,0.7-1.8,2.1c1,0,2,0,3,0c0.3,0,0.4-0.1,0.4-0.3C329.5,242.3,328.8,241.5,327.9,241.3
        C327.9,241.4,327.9,241.4,327.9,241.3L327.9,241.3z"/>
      <path d="M339,247c-0.7,1-1.9,1.6-3.1,1.8c-2,0-3.6-1.5-3.6-3.5c0-0.1,0-0.1,0-0.2c0-1.1,0.4-2.2,1.2-3c0.7-0.8,1.7-1.3,2.8-1.3
        l0,0c1.5,0,2.8,1.2,2.8,2.7c0,0.3-0.1,0.5-0.4,0.6c-0.3,0.1-2.6,0.2-4.8,0.3c0,2.3,1.4,3.2,2.7,3.2c0.8,0,1.6-0.3,2.1-0.9L339,247
        z M335.8,241.3c-0.8,0-1.6,0.7-1.8,2.1c1,0,2,0,3,0c0.3,0,0.4-0.1,0.4-0.3C337.5,242.3,336.8,241.5,335.8,241.3
        C335.9,241.4,335.9,241.4,335.8,241.3L335.8,241.3z"/>
      <path d="M349.3,248.1c-1,0.2-2,0.4-3,0.6v-1.1l-1.1,0.6c-0.4,0.3-0.9,0.4-1.4,0.5c-2-0.1-3.5-1.7-3.5-3.7c0,0,0,0,0,0
        c0.2-2.5,2.3-4.4,4.8-4.3c0.4,0,0.8,0.1,1.2,0.2v-2.5c0-1.1-0.1-1.2-1.4-1.3v-0.5c1-0.1,2-0.3,3-0.6v10.4c0,1,0.1,1,0.9,1.1l0.5,0
        L349.3,248.1z M346.3,242.3c-0.4-0.6-1.1-0.9-1.9-0.9c-0.8,0-2.3,0.6-2.3,3.2c0,2.1,1.4,3,2.5,3c0.6,0,1.2-0.2,1.7-0.5
        L346.3,242.3z"/>
      <path d="M359.8,243c-0.4-1-1-1.8-1.9-1.8c-0.6,0-1.1,0.5-1.1,1.1c0,0,0,0.1,0,0.1c0,0.7,0.7,1.1,1.5,1.4c1.4,0.5,2.4,1.2,2.4,2.4
        c0,1.6-1.6,2.5-3.1,2.5c-0.7,0-1.5-0.2-2.1-0.6c-0.2-0.7-0.3-1.4-0.3-2.1l0.5-0.1c0.3,1.2,1.2,2.2,2.3,2.2c0.7,0,1.2-0.5,1.2-1.2
        c0,0,0,0,0-0.1c0-0.7-0.5-1.1-1.4-1.5s-2.3-1.1-2.3-2.5s1.1-2.3,2.8-2.3c0.6,0,1.1,0.1,1.7,0.3c0.2,0.6,0.3,1.2,0.4,1.9L359.8,243
        z"/>
      <path d="M366.2,240.7c2.2-0.1,4,1.6,4.1,3.8c0,0,0,0,0,0.1c0.1,2.2-1.6,4.1-3.8,4.1c-0.1,0-0.2,0-0.2,0c-2.2,0.1-4-1.5-4.2-3.7
        c0-0.1,0-0.1,0-0.2C362,242.6,363.8,240.7,366.2,240.7C366.1,240.7,366.2,240.7,366.2,240.7L366.2,240.7z M365.9,241.3
        c-1.1,0-2,1-2,3c0,2.2,1,3.8,2.5,3.8c1.1,0,2-0.7,2-3.1C368.4,242.9,367.5,241.3,365.9,241.3L365.9,241.3z"/>
      <path d="M381.5,248.5v-0.5c1-0.1,1.2-0.2,1.2-1.4v-2.8c0-1.3-0.5-2-1.6-2c-0.7,0.1-1.4,0.4-2,0.9c0,0.2,0.1,0.5,0,0.7v3.4
        c0,1.1,0.2,1.2,1.2,1.3v0.5h-4v-0.5c1.1-0.1,1.3-0.2,1.3-1.3v-3c0-1.3-0.5-2-1.6-2c-0.7,0.1-1.4,0.4-1.9,0.9v4.1
        c0,1.1,0.2,1.2,1,1.3v0.5h-4V248c1.2-0.1,1.4-0.2,1.4-1.4v-3.5c0-1.1-0.1-1.2-1.1-1.4v-0.4c0.9-0.1,1.8-0.4,2.7-0.7v1.4
        c0.4-0.2,0.8-0.6,1.4-0.9c0.4-0.3,1-0.5,1.5-0.5c0.9,0,1.7,0.6,2,1.4c0.5-0.4,1.1-0.7,1.5-1c0.4-0.3,0.9-0.4,1.4-0.5
        c1.5,0,2.4,1,2.4,2.7v3.3c0,1.1,0.1,1.2,1.2,1.3v0.5L381.5,248.5z"/>
      <path d="M393.2,247c-0.7,1-1.9,1.6-3.1,1.8c-1.9,0-3.6-1.5-3.6-3.5c0-0.1,0-0.2,0-0.2c0-1.1,0.4-2.2,1.2-3
        c0.7-0.8,1.7-1.3,2.8-1.3l0,0c1.5,0,2.7,1.2,2.8,2.7c0,0.3-0.1,0.5-0.4,0.6c-0.3,0.1-2.6,0.2-4.8,0.3c0,2.3,1.4,3.2,2.7,3.2
        c0.8,0,1.6-0.3,2.1-0.9L393.2,247z M390,241.3c-0.8,0-1.6,0.7-1.8,2.1c1,0,2,0,3,0c0.3,0,0.4-0.1,0.4-0.3
        C391.7,242.3,391,241.5,390,241.3C390.1,241.4,390,241.4,390,241.3L390,241.3z"/>
      <path d="M319,260c-0.4-1-1-1.8-1.9-1.8c-0.6,0-1.1,0.5-1.1,1.1c0,0,0,0.1,0,0.1c0,0.7,0.7,1.1,1.5,1.5c1.4,0.5,2.4,1.2,2.4,2.4
        c0,1.6-1.6,2.5-3.1,2.5c-0.7,0-1.5-0.2-2.1-0.6c-0.2-0.7-0.3-1.4-0.3-2.1l0.5-0.1c0.3,1.2,1.2,2.2,2.3,2.2c0.7,0,1.2-0.5,1.3-1.2
        c0,0,0,0,0,0c0-0.7-0.5-1.1-1.4-1.5c-0.9-0.4-2.3-1.1-2.3-2.4s1.1-2.3,2.8-2.3c0.6,0,1.1,0.1,1.7,0.3c0.2,0.6,0.3,1.2,0.4,1.9
        L319,260z"/>
      <path d="M333.2,258.4c-0.9,0.1-1.1,0.4-1.5,1.3c-0.6,1.4-1.4,3.7-2.2,6.1H329c-0.8-1.9-1.5-3.6-2.3-5.3c-0.7,1.7-1.4,3.5-2.2,5.3
        H324c-0.7-2.1-1.4-4.1-2.1-6.2c-0.3-0.9-0.5-1-1.3-1.1v-0.5h3.9v0.5c-1.1,0.2-1.2,0.3-0.9,1.1c0.4,1.3,0.9,2.6,1.3,3.9l0,0
        c0.7-1.6,1.4-3.4,2.1-5.3h0.5c0.7,1.8,1.4,3.6,2.2,5.4l0,0c0.4-1.1,0.9-2.7,1.2-3.9c0.2-0.8,0.1-1-1.1-1.1v-0.5h3.4L333.2,258.4z"
        />
      <path d="M333.6,265.5v-0.5c1.1-0.1,1.3-0.2,1.3-1.4v-3.5c0-1.1-0.1-1.2-1.1-1.4v-0.4c0.9-0.1,1.9-0.4,2.7-0.7v6
        c0,1.2,0.1,1.3,1.3,1.4v0.5L333.6,265.5z M334.6,255.3c0-0.6,0.4-1,1-1c0.6,0,1,0.4,1,1c0,0.5-0.5,0.9-1,0.9
        C335.1,256.2,334.6,255.8,334.6,255.3L334.6,255.3z"/>
      <path d="M342.8,258c0.3-0.2,0.6-0.3,1-0.3c1.8-0.1,3.2,1.3,3.3,3.1c0,0.1,0,0.1,0,0.2c0,2.6-2.2,4.3-4.6,4.7
        c-0.4,0-0.9-0.1-1.3-0.3v2.3c0,1.3,0.1,1.4,1.6,1.5v0.5h-4.5v-0.5c1.2-0.1,1.3-0.2,1.3-1.4V260c0-1.1-0.1-1.2-1.2-1.3v-0.4
        c1-0.2,1.9-0.4,2.8-0.8v1.4L342.8,258z M341.1,264.2c0.5,0.4,1.1,0.7,1.7,0.7c1.5,0,2.5-1.3,2.5-3.1s-1.2-2.9-2.4-2.9
        c-0.6,0.1-1.3,0.3-1.8,0.7V264.2z"/>
      <path d="M355.2,264c-0.7,1-1.9,1.7-3.1,1.8c-2,0-3.6-1.5-3.6-3.5c0-0.1,0-0.1,0-0.2c0-1.1,0.4-2.2,1.2-3c0.7-0.8,1.7-1.3,2.8-1.3
        l0,0c1.5,0,2.8,1.2,2.8,2.7c0,0.3-0.1,0.5-0.4,0.6c-0.3,0.1-2.6,0.2-4.8,0.3c0,2.3,1.4,3.2,2.7,3.2c0.8,0,1.6-0.3,2.1-0.9
        L355.2,264z M352,258.4c-0.8,0-1.6,0.7-1.8,2.1c1,0,2,0,3,0c0.3,0,0.4-0.1,0.4-0.3C353.7,259.3,353,258.5,352,258.4
        C352.1,258.4,352.1,258.4,352,258.4L352,258.4z"/>
      <path d="M361.1,260c-0.4-1-1-1.8-1.9-1.8c-0.6,0-1.1,0.5-1.1,1.1c0,0,0,0.1,0,0.1c0,0.7,0.7,1.1,1.5,1.5c1.4,0.5,2.4,1.2,2.4,2.4
        c0,1.6-1.6,2.5-3.1,2.5c-0.7,0-1.5-0.2-2.1-0.6c-0.2-0.7-0.3-1.4-0.3-2.1l0.5-0.1c0.3,1.2,1.2,2.2,2.2,2.2c0.7,0,1.2-0.5,1.3-1.2
        c0,0,0,0,0,0c0-0.7-0.5-1.1-1.4-1.5c-0.9-0.4-2.3-1.1-2.3-2.4s1.1-2.3,2.8-2.3c0.6,0,1.1,0.1,1.6,0.3c0.2,0.6,0.3,1.3,0.4,1.9
        L361.1,260z"/>
    </g>
    <g id="camera">
      <g id="xkgxMF.tif">
        <path d="M161.2,593.8v13.6c-0.3,0.7-0.6,1.4-1,2c-1.4,1.7-3.5,2.7-5.7,2.6c-9.4,0-18.7,0-28.1,0c-1,0-2-0.2-2.9-0.5
          c-2.3-0.8-3.8-2.9-3.8-5.2c0.1-3.9,0-7.7,0-11.6c0-0.6,0.1-1.1,0.3-1.7c0.7-1.8,2.4-3.2,4.3-3.5c1.3-0.2,2.6-0.3,3.8-0.3
          c1.1,0,2.2,0,3.2,0c0.1-0.3,0.1-0.6,0.2-0.9c0-0.7,0.2-1.3,0.4-1.9c0.7-1.3,2-2.1,3.5-2.1c3.3,0,6.6,0,9.9,0
          c1.9,0,3.6,1.4,3.9,3.3c0,0.5,0.2,1,0.3,1.6c1.8,0,3.6,0,5.3,0c1.5,0,2.9,0.5,4.1,1.3C160,591.4,160.8,592.5,161.2,593.8z
           M140.5,609.3h0.3c4.7,0,9.3,0,14,0c1.6,0.1,3-1,3.2-2.7c0-4,0-8,0-12.1c0-0.4-0.1-0.8-0.4-1.2c-0.7-1-1.9-1.6-3.1-1.5
          c-1.7,0-3.4,0-5,0c-1.1,0.1-2.2-0.5-2.8-1.5c-0.3-0.8-0.5-1.6-0.7-2.4c-0.2-1-0.2-1-1.2-1H137c-2.2,0-1.9-0.2-2.2,1.9
          c0,0,0,0,0,0.1c-0.1,1.8-1.7,3.1-3.5,3c0,0-0.1,0-0.1,0c-1.7,0-3.4,0-5.2,0c-1.6-0.1-2.9,1.1-3.1,2.6c0,4,0,8.1,0,12.2
          c0.1,0.5,0.3,1,0.6,1.4c0.7,0.9,1.8,1.3,2.9,1.2L140.5,609.3z"/>
        <path class="st12" d="M161.2,593.8c-0.4-1.3-1.2-2.4-2.2-3.2c-1.2-0.9-2.6-1.3-4.1-1.3c-1.8,0-3.5,0-5.3,0
          c-0.1-0.5-0.2-1-0.3-1.6c-0.2-1.9-1.9-3.4-3.9-3.3c-3.3,0-6.6,0-9.9,0c-1.5,0-2.8,0.8-3.5,2.1c-0.2,0.6-0.4,1.3-0.4,1.9
          c-0.1,0.3-0.1,0.5-0.2,0.9c-1.1,0-2.2,0-3.2,0c-1.3,0-2.6,0.1-3.8,0.3c-1.9,0.4-3.6,1.7-4.3,3.5c-0.2,0.5-0.3,1.1-0.3,1.7
          c0,3.9,0.1,7.7,0,11.6c0,2.4,1.6,4.5,3.8,5.2c0.9,0.3,1.9,0.5,2.9,0.5c9.4,0,18.7,0,28.1,0c2.2,0.1,4.3-0.9,5.7-2.6
          c0.4-0.6,0.7-1.3,1-2v4.8h-41.6V584h41.6V593.8z"/>
        <path class="st12" d="M140.5,609.3h-14c-1.1,0.1-2.2-0.3-2.9-1.2c-0.3-0.4-0.5-0.9-0.6-1.4c0-4.1,0-8.1,0-12.2
          c0.1-1.6,1.5-2.7,3.1-2.6c1.7,0,3.4,0,5.2,0c1.8,0.2,3.4-1.1,3.5-2.9c0,0,0-0.1,0-0.1c0,0,0,0,0-0.1c0.4-2.1,0-1.9,2.2-1.9h7.8
          c1,0,1,0.1,1.2,1c0.1,0.8,0.4,1.6,0.7,2.4c0.5,1,1.6,1.6,2.8,1.5c1.7,0,3.4,0,5,0c1.2-0.1,2.4,0.5,3.1,1.5
          c0.2,0.4,0.4,0.8,0.4,1.2c0,4,0,8,0,12.1c-0.2,1.6-1.6,2.8-3.2,2.7c-4.7,0-9.3,0-14,0L140.5,609.3z M140.8,608.1
          c2.4,0,4.6-0.9,6.4-2.4c1.9-1.4,2.9-3.7,2.8-6c0-1.3-0.5-2.6-1.2-3.6c-1-1.4-2.4-2.6-4-3.2c-3.3-1.4-7.1-1.1-10.2,0.9
          c-1.8,1.1-3.1,3-3.5,5.1c-0.2,1.2-0.1,2.4,0.4,3.6c0.5,1.2,1.2,2.4,2.3,3.2C135.7,607.3,138.2,608.2,140.8,608.1L140.8,608.1z
           M154.2,595.7c0.8,0,1.3-0.5,1.3-1.2c0-0.7-0.6-1.2-1.2-1.1c0,0-0.1,0-0.1,0c-0.7,0-1.3,0.5-1.3,1.2
          C152.9,595.2,153.5,595.7,154.2,595.7C154.2,595.7,154.2,595.7,154.2,595.7L154.2,595.7z"/>
        <path d="M140.8,608.1c-2.6,0.1-5.1-0.8-7.1-2.4c-1-0.8-1.8-2-2.3-3.2c-0.5-1.1-0.6-2.4-0.4-3.6c0.4-2.1,1.7-4,3.5-5.1
          c3-2,6.8-2.3,10.2-0.9c1.6,0.7,3,1.8,4,3.2c0.8,1.1,1.2,2.3,1.2,3.6c0.1,2.3-1,4.6-2.8,6C145.3,607.3,143.1,608.1,140.8,608.1z
           M140.5,594.7c-0.9,0.2-1.7,0.3-2.6,0.6c-1.7,0.5-3,1.8-3.6,3.4c-0.7,2,0.1,4.2,1.8,5.4c2.8,2.1,6.8,1.8,9.3-0.7
          c1.7-1.7,1.8-4.4,0.3-6.2C144.4,595.6,142.5,594.8,140.5,594.7z"/>
        <path d="M154.2,595.7c-0.7,0.1-1.3-0.4-1.4-1.1c0,0,0,0,0,0c0-0.7,0.6-1.2,1.3-1.2c0.7-0.1,1.3,0.4,1.3,1c0,0,0,0.1,0,0.1
          C155.5,595.2,155,595.7,154.2,595.7z"/>
        <path class="st12" d="M140.5,594.7c2,0.1,3.9,0.9,5.2,2.4c1.5,1.8,1.4,4.5-0.3,6.2c-2.5,2.5-6.4,2.8-9.3,0.7
          c-1.8-1.2-2.5-3.4-1.8-5.4c0.6-1.6,1.9-2.9,3.6-3.4C138.8,595,139.7,594.9,140.5,594.7z"/>
      </g>
    </g>
    <g id="food_image">
      <g id="_6dgp7y">

          <image style="overflow:visible;enable-background:new;" width="286" height="174" id="_6dgp7y-2" xlink:href="1DD28562D1DBBA53.png"  transform="matrix(0.5 0 0 0.4956 252.58 429.92)">
        </image>
      </g>
    </g>
  </g>
  <g id="send_button">
    <g>
      <polygon class="st14" points="379.7,585.3 410.7,598.8 379.7,612.3 390.7,598.8 		"/>
    </g>
  </g>
</svg>
